<svg width="40" height="40" viewBox="0 0 40 40" fill="none" xmlns="http://www.w3.org/2000/svg">
<g id="Layer_1" clip-path="url(#clip0_1674_6026)">
<g id="Group">
<path id="Vector" d="M25.7191 14.9196C25.7191 17.3096 23.7791 19.2396 21.3991 19.2396C19.0191 19.2396 17.0791 17.2996 17.0791 14.9196C17.0791 12.5396 19.0191 10.5996 21.3991 10.5996C23.7791 10.5996 25.7191 12.5396 25.7191 14.9196Z" fill="#FFCB09"/>
<path id="Vector_2" d="M11.7296 34.6801C11.5996 34.6801 11.4696 34.6301 11.3796 34.5301L5.45957 28.6201C5.36957 28.5301 5.30957 28.4001 5.30957 28.2701C5.30957 28.1401 5.35957 28.0101 5.45957 27.9201L11.3696 22.0101C11.3696 22.0101 11.3896 21.9901 11.3996 21.9801C12.2596 21.2501 13.5196 20.8301 14.8496 20.8301C16.0796 20.8301 17.2396 21.1801 18.1096 21.8301C18.6996 22.2601 19.3496 22.4901 19.9796 22.4901H22.8496C23.9096 22.4901 24.7696 23.3501 24.7696 24.4101V24.5401C24.7696 25.6001 23.9096 26.4601 22.8496 26.4601H19.3596C18.9996 26.4601 18.6996 26.7501 18.6996 27.1201C18.6996 27.4901 18.9896 27.7701 19.3596 27.7701H24.9396L31.0096 23.2201C31.4696 22.8801 32.0296 22.7401 32.5996 22.8401C33.1596 22.9401 33.6596 23.2601 33.9696 23.7301C34.1096 23.9301 34.0696 24.2001 33.8996 24.3701L26.4396 31.4101C25.6896 32.1201 24.6996 32.5101 23.6596 32.5101H15.0096C14.4196 32.5101 13.8596 32.7401 13.4396 33.1601L12.0696 34.5301C11.9696 34.6301 11.8396 34.6801 11.7196 34.6801H11.7296ZM6.51957 28.2701L11.7296 33.4801L12.7496 32.4601C13.3596 31.8501 14.1696 31.5201 15.0296 31.5201H23.6796C24.4596 31.5201 25.1996 31.2301 25.7696 30.6901L32.8596 24.0001C32.7396 23.9201 32.5896 23.8601 32.4396 23.8301C32.1496 23.7801 31.8596 23.8501 31.6196 24.0301L25.4096 28.6801C25.3196 28.7401 25.2196 28.7801 25.1096 28.7801H19.3696C18.4596 28.7801 17.7096 28.0401 17.7096 27.1301C17.7096 26.2201 18.4496 25.4701 19.3696 25.4701H22.8596C23.3696 25.4701 23.7796 25.0601 23.7796 24.5501V24.4201C23.7796 23.9101 23.3696 23.5001 22.8596 23.5001H19.9896C19.1396 23.5001 18.2796 23.2001 17.5196 22.6401C16.8296 22.1301 15.8496 21.8401 14.8496 21.8401C13.7596 21.8401 12.7496 22.1701 12.0596 22.7401L6.51957 28.2801V28.2701Z" fill="#121212"/>
<g id="Group_2">
<path id="Vector_3" d="M19.6995 19.7799C15.8795 19.7799 12.7695 16.6699 12.7695 12.8499C12.7695 9.02992 15.8795 5.91992 19.6995 5.91992C23.5195 5.91992 26.6295 9.02992 26.6295 12.8499C26.6295 16.6699 23.5195 19.7799 19.6995 19.7799ZM19.6995 6.91992C16.4295 6.91992 13.7695 9.57992 13.7695 12.8499C13.7695 16.1199 16.4295 18.7799 19.6995 18.7799C22.9695 18.7799 25.6295 16.1199 25.6295 12.8499C25.6295 9.57992 22.9695 6.91992 19.6995 6.91992Z" fill="#121212"/>
<g id="Group_3">
<path id="Vector_4" d="M21.9594 10.5H18.1094C17.8294 10.5 17.6094 10.28 17.6094 10C17.6094 9.72 17.8294 9.5 18.1094 9.5H21.9594C22.2394 9.5 22.4594 9.72 22.4594 10C22.4594 10.28 22.2394 10.5 21.9594 10.5Z" fill="#121212"/>
<path id="Vector_5" d="M21.9597 12.5898H17.4297C17.1497 12.5898 16.9297 12.3698 16.9297 12.0898C16.9297 11.8098 17.1497 11.5898 17.4297 11.5898H21.9597C22.2397 11.5898 22.4597 11.8098 22.4597 12.0898C22.4597 12.3698 22.2397 12.5898 21.9597 12.5898Z" fill="#121212"/>
<path id="Vector_6" d="M20.4693 17.3603C20.3493 17.3603 20.2293 17.3203 20.1393 17.2403L17.1093 14.5703C16.8993 14.3903 16.8793 14.0703 17.0693 13.8603C17.2493 13.6503 17.5693 13.6303 17.7793 13.8203L20.8093 16.4903C21.0193 16.6703 21.0393 16.9903 20.8493 17.2003C20.7493 17.3103 20.6093 17.3703 20.4693 17.3703V17.3603Z" fill="#121212"/>
<path id="Vector_7" d="M18.1097 14.6902H17.4297C17.1497 14.6902 16.9297 14.4702 16.9297 14.1902C16.9297 13.9102 17.1497 13.6902 17.4297 13.6902H18.1097C18.8297 13.6902 19.4197 12.9702 19.4197 12.0902C19.4197 11.2102 18.8297 10.4902 18.1097 10.4902H17.4297C17.1497 10.4902 16.9297 10.2702 16.9297 9.99023C16.9297 9.71023 17.1497 9.49023 17.4297 9.49023H18.1097C19.3797 9.49023 20.4197 10.6602 20.4197 12.0902C20.4197 13.5202 19.3797 14.6902 18.1097 14.6902Z" fill="#121212"/>
</g>
</g>
</g>
</g>
<defs>
<clipPath id="clip0_1674_6026">
<rect width="40" height="40" fill="white"/>
</clipPath>
</defs>
</svg>
