<?xml version="1.0" encoding="utf-8"?>
<!-- Generator: Adobe Illustrator 28.0.0, SVG Export Plug-In . SVG Version: 6.00 Build 0)  -->
<svg version="1.1" id="Layer_1" xmlns="http://www.w3.org/2000/svg" xmlns:xlink="http://www.w3.org/1999/xlink" x="0px" y="0px"
	 viewBox="0 0 40 40" enable-background="new 0 0 40 40" xml:space="preserve">
<g>
	<defs>
		<rect id="SVGID_1_" width="40" height="40"/>
	</defs>
	<clipPath id="SVGID_00000000204341677764644330000008357560712822772915_">
		<use xlink:href="#SVGID_1_"  overflow="visible"/>
	</clipPath>
	<g clip-path="url(#SVGID_00000000204341677764644330000008357560712822772915_)">
		<g>
			<defs>
				<rect id="SVGID_00000181047575919410387270000017243961420662037124_" width="40" height="40"/>
			</defs>
			<clipPath id="SVGID_00000093897714081927019750000000236516080585010841_">
				<use xlink:href="#SVGID_00000181047575919410387270000017243961420662037124_"  overflow="visible"/>
			</clipPath>
			<g clip-path="url(#SVGID_00000093897714081927019750000000236516080585010841_)">
				<path fill="#FFCB09" d="M32.57,24.33v4.59c0,3.01-2.44,5.45-5.45,5.45h-4.67c-3.01,0-5.45-2.44-5.45-5.45v-1.3
					c0-1.81,1.47-3.29,3.29-3.29h12.29H32.57z"/>
				<path fill="#121212" d="M23.7,34.75h-7.82c-6.84,0-9.62-2.69-9.62-9.3v-6.28c0-0.28,0.22-0.5,0.5-0.5c0.28,0,0.5,0.22,0.5,0.5
					v6.28c0,5.97,2.42,8.3,8.62,8.3h7.82c6.21,0,8.62-2.33,8.62-8.3v-6.28c0-0.28,0.22-0.5,0.5-0.5s0.5,0.22,0.5,0.5v6.28
					C33.32,32.05,30.53,34.75,23.7,34.75z"/>
				<path fill="#121212" d="M19.79,20.76c-1.46,0-2.78-0.56-3.7-1.59c-0.88-0.98-1.29-2.26-1.15-3.6l0.97-9.35
					c0.03-0.25,0.24-0.45,0.5-0.45h6.77c0.26,0,0.47,0.19,0.5,0.45l0.97,9.35c0.14,1.34-0.27,2.62-1.15,3.6
					C22.58,20.19,21.26,20.76,19.79,20.76L19.79,20.76z M16.86,6.78l-0.92,8.9c-0.11,1.06,0.21,2.06,0.9,2.83
					c0.73,0.81,1.78,1.26,2.96,1.26c1.18,0,2.23-0.45,2.96-1.26c0.69-0.76,1.01-1.77,0.9-2.83l-0.92-8.9h-5.87H16.86z"/>
				<path fill="#FFCB09" d="M29.96,17.03c2.23,0,3.88-1.82,3.65-4.04l-0.3-3.05c-0.4-2.88-1.51-3.99-4.41-3.99h-3.37l0.78,7.77
					C26.49,15.54,28.14,17.03,29.96,17.03z"/>
				<path fill="#FFCB09" d="M9.52,16.49c1.74,0,3.3-1.42,3.48-3.15l0.23-2.33l0.51-5.06h-3.21C7.77,5.95,6.72,7,6.34,9.74l-0.29,2.9
					c-0.21,2.11,1.35,3.84,3.48,3.84L9.52,16.49z"/>
				<path fill="#121212" d="M28.94,20.76c-2.65,0-5.02-2.08-5.28-4.62l-1.02-9.81c-0.01-0.14,0.03-0.28,0.13-0.39
					c0.1-0.1,0.23-0.17,0.37-0.17h4.42c4,0,5.7,1.48,6.27,5.47l0.4,3.87c0.15,1.46-0.29,2.86-1.25,3.92
					c-1.01,1.12-2.44,1.73-4.03,1.73H28.94z M23.69,6.78l0.96,9.26c0.21,2.06,2.14,3.73,4.29,3.73c1.31,0,2.47-0.5,3.29-1.4
					c0.77-0.85,1.12-1.97,1-3.15l-0.4-3.85c-0.5-3.47-1.78-4.59-5.27-4.59H23.7H23.69z"/>
				<path fill="#121212" d="M10.56,20.76c-1.59,0-3.03-0.61-4.03-1.73c-0.96-1.06-1.4-2.46-1.25-3.92l0.4-3.85
					c0.57-4,2.27-5.49,6.27-5.49h4.42c0.14,0,0.28,0.06,0.37,0.17s0.14,0.25,0.13,0.39l-1.02,9.81
					C15.59,18.69,13.21,20.76,10.56,20.76L10.56,20.76z M11.95,6.78c-3.49,0-4.78,1.12-5.28,4.61l-0.4,3.83
					c-0.12,1.18,0.23,2.3,1,3.15c0.81,0.9,1.98,1.4,3.29,1.4c2.15,0,4.08-1.67,4.29-3.73l0.96-9.26H11.95z"/>
				<path fill="#121212" d="M23.42,34.75h-7.25c-0.28,0-0.5-0.22-0.5-0.5v-3.5c0-2.61,1.43-4,4.13-4s4.13,1.38,4.13,4v3.5
					C23.93,34.53,23.71,34.75,23.42,34.75L23.42,34.75z M16.67,33.75h6.25v-3c0-2.04-0.99-3-3.13-3s-3.13,0.95-3.13,3v3H16.67z"/>
			</g>
		</g>
	</g>
</g>
</svg>
