<svg width="37" height="36" viewBox="0 0 37 36" fill="none" xmlns="http://www.w3.org/2000/svg">
<path d="M26.4179 12.5325H19.1054C16.3219 12.5325 14.0654 14.789 14.0654 17.5725V27.99C14.0654 30.7735 16.3219 33.03 19.1054 33.03H26.4179C29.2014 33.03 31.4579 30.7735 31.4579 27.99V17.5725C31.4579 14.789 29.2014 12.5325 26.4179 12.5325Z" fill="#FFCB09"/>
<path d="M26.7099 33.9413H10.7011C7.60738 33.9413 5.09863 31.4213 5.09863 28.3388V7.67251C5.09863 4.57876 7.61863 2.07001 10.7011 2.07001H26.7099C29.8036 2.07001 32.3124 4.59001 32.3124 7.67251V28.3275C32.3124 31.4213 29.8036 33.93 26.7099 33.93V33.9413ZM10.7011 3.18376C8.22613 3.18376 6.22363 5.19751 6.22363 7.66126V28.3275C6.22363 30.8025 8.23738 32.805 10.7011 32.805H26.7099C29.1849 32.805 31.1874 30.7913 31.1874 28.3275V7.67251C31.1874 5.19751 29.1736 3.19501 26.7099 3.19501H10.7011V3.18376Z" fill="black"/>
<path d="M25.1129 14.9288H12.2992C10.9492 14.9288 9.84668 13.8263 9.84668 12.4763V10.1138C9.84668 8.76375 10.9492 7.66125 12.2992 7.66125H25.1129C26.4629 7.66125 27.5654 8.76375 27.5654 10.1138V12.4763C27.5654 13.8263 26.4629 14.9288 25.1129 14.9288ZM12.2992 8.78625C11.5679 8.78625 10.9717 9.3825 10.9717 10.1138V12.4763C10.9717 13.2075 11.5679 13.8038 12.2992 13.8038H25.1129C25.8442 13.8038 26.4404 13.2075 26.4404 12.4763V10.1138C26.4404 9.3825 25.8442 8.78625 25.1129 8.78625H12.2992Z" fill="black"/>
<path d="M12.3446 21.6337C11.9846 21.6337 11.6359 21.4875 11.3884 21.2287C11.2646 21.105 11.1634 20.9587 11.1071 20.79C11.0284 20.6212 11.0059 20.4637 11.0059 20.2837C11.0059 19.9237 11.1409 19.575 11.3996 19.3275C11.7709 18.9562 12.3784 18.8325 12.8734 19.0462C13.0421 19.1025 13.1884 19.215 13.3121 19.3275C13.5709 19.5862 13.7171 19.9237 13.7171 20.2837C13.7171 20.4637 13.6834 20.6325 13.6159 20.79C13.5371 20.9587 13.4471 21.105 13.3121 21.2287C13.0759 21.4875 12.7271 21.6337 12.3671 21.6337H12.3446Z" fill="black"/>
<path d="M18.4867 21.6337C18.3067 21.6337 18.138 21.5887 17.958 21.5325C17.8117 21.4537 17.6542 21.3637 17.5192 21.2287C17.3955 21.105 17.2942 20.9587 17.238 20.79C17.1592 20.6212 17.1367 20.4637 17.1367 20.2837C17.1367 19.9237 17.283 19.575 17.5305 19.3275C17.6655 19.2037 17.8005 19.1025 17.9692 19.0462C18.4755 18.8325 19.083 18.9562 19.4542 19.3275C19.6905 19.5862 19.848 19.9237 19.848 20.2837C19.848 20.4637 19.8142 20.6325 19.7467 20.79C19.668 20.9587 19.578 21.105 19.4655 21.2287C19.2067 21.4875 18.8692 21.6337 18.5092 21.6337H18.4867Z" fill="black"/>
<path d="M24.6405 21.6337C24.2805 21.6337 23.9318 21.4875 23.6843 21.2287C23.5605 21.105 23.4593 20.9587 23.403 20.79C23.3243 20.6212 23.3018 20.4637 23.3018 20.2837C23.3018 19.9237 23.448 19.575 23.6955 19.3275C24.1905 18.8325 25.1018 18.8325 25.6193 19.3275C25.8555 19.5862 26.013 19.9237 26.013 20.2837C26.013 20.4637 25.9793 20.6325 25.9118 20.79C25.8555 20.9587 25.743 21.105 25.6305 21.2287C25.3718 21.4875 25.0343 21.6337 24.6743 21.6337H24.6405Z" fill="black"/>
<path d="M12.3446 27.7763C11.9846 27.7763 11.6359 27.63 11.3884 27.3713C11.2646 27.2475 11.1634 27.1013 11.1071 26.9325C11.0284 26.7638 11.0059 26.6063 11.0059 26.4263C11.0059 26.0663 11.1521 25.7175 11.3996 25.47C11.7709 25.0988 12.3784 24.975 12.8734 25.1888C13.0421 25.245 13.1884 25.3575 13.3121 25.47C13.5709 25.7288 13.7171 26.0663 13.7171 26.4263C13.7171 26.6063 13.6834 26.775 13.6159 26.9325C13.5371 27.1013 13.4471 27.2475 13.3121 27.3713C13.2559 27.45 13.1884 27.495 13.1209 27.5513C13.0421 27.5963 12.9746 27.6413 12.8846 27.675C12.7159 27.7313 12.5584 27.7763 12.3784 27.7763H12.3446Z" fill="black"/>
<path d="M18.4867 27.7763C18.3067 27.7763 18.1267 27.7313 17.958 27.675C17.8792 27.6413 17.8117 27.5963 17.733 27.5513C17.6542 27.495 17.5867 27.45 17.5192 27.3713C17.3955 27.2475 17.2942 27.1013 17.238 26.9325C17.1592 26.7638 17.1367 26.6063 17.1367 26.4263C17.1367 26.0663 17.283 25.7175 17.5305 25.47C17.6542 25.3463 17.8117 25.245 17.9692 25.1888C18.4755 24.975 19.0605 25.0988 19.443 25.47C19.7017 25.7288 19.848 26.0663 19.848 26.4263C19.848 26.6063 19.8142 26.775 19.7467 26.9325C19.668 27.1013 19.578 27.2475 19.443 27.3713C19.3192 27.5063 19.173 27.5963 19.0042 27.675C18.8355 27.7313 18.678 27.7763 18.498 27.7763H18.4867Z" fill="black"/>
<path d="M24.6405 27.7762C24.4605 27.7762 24.2918 27.7312 24.1343 27.675C23.9655 27.5962 23.8193 27.5062 23.6843 27.3712C23.5605 27.2475 23.4593 27.1012 23.403 26.9325C23.3243 26.7637 23.3018 26.6062 23.3018 26.4262C23.3018 26.0662 23.448 25.7175 23.6955 25.47C23.8305 25.3462 23.9768 25.245 24.1455 25.1887C24.4718 25.0425 24.8318 25.0425 25.1693 25.1887C25.338 25.245 25.4843 25.3575 25.6193 25.47C25.8555 25.7287 26.013 26.0662 26.013 26.4262C26.013 26.6062 25.9793 26.775 25.9118 26.9325C25.833 27.1012 25.743 27.2475 25.6305 27.3712C25.4955 27.5062 25.3493 27.5962 25.1805 27.675C25.0118 27.7312 24.8543 27.7762 24.6743 27.7762H24.6405Z" fill="black"/>
</svg>
