<svg width="32" height="32" viewBox="0 0 32 32" fill="none" xmlns="http://www.w3.org/2000/svg">
<g id="Layer_1" clip-path="url(#clip0_3410_481)">
<path id="Vector" d="M24.0643 18.6323C24.0643 22.2563 21.1283 25.1923 17.5043 25.1923C13.8803 25.1923 10.9443 22.2563 10.9443 18.6323C10.9443 15.0083 13.8803 12.0723 17.5043 12.0723C21.1283 12.0723 24.0643 15.0083 24.0643 18.6323Z" fill="#FFCB09"/>
<g id="Group">
<g id="Group_2">
<g id="Group_3">
<path id="Vector_2" d="M24.0641 16.784C23.8401 16.784 23.6641 16.608 23.6641 16.384V12.424C23.6641 8.19996 20.2241 4.75996 16.0001 4.75996C11.7761 4.75996 8.33613 8.19996 8.33613 12.424V16.384C8.33613 16.608 8.16013 16.784 7.93613 16.784C7.71213 16.784 7.53613 16.608 7.53613 16.384V12.424C7.53613 7.75996 11.3361 3.95996 16.0001 3.95996C20.6641 3.95996 24.4641 7.75996 24.4641 12.424V16.384C24.4641 16.608 24.2881 16.784 24.0641 16.784Z" fill="#121212"/>
<path id="Vector_3" d="M7.93605 20.1923H6.84805C5.41605 20.1923 4.24805 19.0243 4.24805 17.5923V16.1283C4.24805 14.6963 5.41605 13.5283 6.84805 13.5283H7.93605C8.16005 13.5283 8.33605 13.7043 8.33605 13.9283V19.7923C8.33605 20.0163 8.16005 20.1923 7.93605 20.1923ZM6.84805 14.3283C5.85605 14.3283 5.04805 15.1363 5.04805 16.1283V17.5923C5.04805 18.5843 5.85605 19.3923 6.84805 19.3923H7.53605V14.3283H6.84805Z" fill="#121212"/>
<path id="Vector_4" d="M25.1521 20.1923H24.0641C23.8401 20.1923 23.6641 20.0163 23.6641 19.7923V13.9283C23.6641 13.7043 23.8401 13.5283 24.0641 13.5283H25.1521C26.5841 13.5283 27.7521 14.6963 27.7521 16.1283V17.5923C27.7521 19.0243 26.5841 20.1923 25.1521 20.1923ZM24.4641 19.3923H25.1521C26.1441 19.3923 26.9521 18.5843 26.9521 17.5923V16.1283C26.9521 15.1363 26.1441 14.3283 25.1521 14.3283H24.4641V19.3923Z" fill="#121212"/>
</g>
<path id="Vector_5" d="M17.6402 26.6156C17.4162 26.6156 17.2402 26.4396 17.2402 26.2156C17.2402 25.9916 17.4162 25.8156 17.6402 25.8156C20.9602 25.8156 23.6642 23.1116 23.6642 19.7916C23.6642 19.5676 23.8402 19.3916 24.0642 19.3916C24.2882 19.3916 24.4642 19.5676 24.4642 19.7916C24.4642 23.5516 21.4002 26.6156 17.6402 26.6156Z" fill="#121212"/>
</g>
<path id="Vector_6" d="M16.5761 28.0398H14.1361C13.3281 28.0398 12.6641 27.3838 12.6641 26.5678V25.8558C12.6641 25.0478 13.3201 24.3838 14.1361 24.3838H16.5761C17.3841 24.3838 18.0481 25.0398 18.0481 25.8558V26.5678C18.0481 27.3758 17.3921 28.0398 16.5761 28.0398ZM14.1361 25.1838C13.7681 25.1838 13.4641 25.4878 13.4641 25.8558V26.5678C13.4641 26.9358 13.7681 27.2398 14.1361 27.2398H16.5761C16.9441 27.2398 17.2481 26.9358 17.2481 26.5678V25.8558C17.2481 25.4878 16.9441 25.1838 16.5761 25.1838H14.1361Z" fill="#121212"/>
</g>
<g id="Group_4">
<path id="Vector_7" d="M14.3196 19.7285H11.5516C11.1916 19.7285 10.8556 19.5525 10.6476 19.2645C10.4476 18.9925 10.3916 18.6485 10.4956 18.3365C10.8236 17.3285 11.6716 16.7605 12.4156 16.2485C13.2956 15.6485 13.8396 15.2405 13.8396 14.4965C13.8396 13.8005 13.2716 13.2325 12.5756 13.2325C11.8796 13.2325 11.3116 13.8005 11.3116 14.4965C11.3116 14.7605 11.0956 14.9765 10.8316 14.9765C10.5676 14.9765 10.3516 14.7605 10.3516 14.4965C10.3516 13.2725 11.3516 12.2725 12.5756 12.2725C13.7996 12.2725 14.7996 13.2725 14.7996 14.4965C14.7996 15.7925 13.8236 16.4565 12.9596 17.0485C12.2796 17.5125 11.6396 17.9445 11.4076 18.6405C11.4476 18.7365 11.4956 18.7765 11.5516 18.7765H14.3196C14.5836 18.7765 14.7996 18.9925 14.7996 19.2565C14.7996 19.5205 14.5836 19.7365 14.3196 19.7365V19.7285Z" fill="#121212"/>
<path id="Vector_8" d="M20.176 19.7285C19.912 19.7285 19.696 19.5125 19.696 19.2485V18.2485H17.376C16.976 18.2485 16.6 18.0325 16.4 17.6885C16.2 17.3365 16.2 16.9045 16.4 16.5605C17.184 15.2165 17.984 13.8725 18.656 12.7925C18.912 12.3845 19.408 12.1925 19.872 12.3285C20.336 12.4645 20.656 12.8885 20.656 13.3685V17.2965H21.16C21.424 17.2965 21.64 17.5125 21.64 17.7765C21.64 18.0405 21.424 18.2565 21.16 18.2565H20.656V19.2565C20.656 19.5205 20.44 19.7365 20.176 19.7365V19.7285ZM19.576 13.2325C19.536 13.2325 19.496 13.2565 19.472 13.2885C18.808 14.3685 18.008 15.6965 17.232 17.0325C17.2 17.0805 17.2 17.1445 17.232 17.2005C17.264 17.2565 17.312 17.3205 17.376 17.2885H19.688V13.3605C19.688 13.3045 19.656 13.2565 19.6 13.2405C19.592 13.2405 19.576 13.2405 19.568 13.2405L19.576 13.2325Z" fill="#121212"/>
</g>
</g>
<defs>
<clipPath id="clip0_3410_481">
<rect width="32" height="32" fill="white"/>
</clipPath>
</defs>
</svg>
