<svg width="41" height="40" viewBox="0 0 41 40" fill="none" xmlns="http://www.w3.org/2000/svg">
<g clip-path="url(#clip0_1607_1867)">
<g clip-path="url(#clip1_1607_1867)">
<path d="M20.5328 33.1904H26.2328C30.9828 33.1904 32.8828 31.3904 32.8828 26.8904V21.4904C32.8828 16.9904 30.9828 15.1904 26.2328 15.1904H20.5328C15.7828 15.1904 13.8828 16.9904 13.8828 21.4904V26.8904C13.8828 31.3904 15.7828 33.1904 20.5328 33.1904Z" fill="#FFCB09"/>
<path d="M13.9375 28.3795C13.6575 28.3795 13.4375 28.1595 13.4375 27.8795V25.2295C13.4375 24.9495 13.6575 24.7295 13.9375 24.7295C14.2175 24.7295 14.4375 24.9495 14.4375 25.2295V27.8795C14.4375 28.1595 14.2175 28.3795 13.9375 28.3795Z" fill="#121212"/>
<path d="M20.5 28.3801C20.22 28.3801 20 28.1601 20 27.8801V22.5801C20 22.3001 20.22 22.0801 20.5 22.0801C20.78 22.0801 21 22.3001 21 22.5801V27.8801C21 28.1601 20.78 28.3801 20.5 28.3801Z" fill="#121212"/>
<path d="M27.0625 28.3802C26.7825 28.3802 26.5625 28.1602 26.5625 27.8802V19.9102C26.5625 19.6302 26.7825 19.4102 27.0625 19.4102C27.3425 19.4102 27.5625 19.6302 27.5625 19.9102V27.8802C27.5625 28.1602 27.3425 28.3802 27.0625 28.3802Z" fill="#121212"/>
<path d="M13.9411 21.0495C13.7211 21.0495 13.5111 20.8995 13.4611 20.6695C13.3911 20.3995 13.5611 20.1295 13.8211 20.0595C18.6311 18.8595 22.8711 16.2395 26.0911 12.4795L26.6811 11.7895C26.8611 11.5795 27.1711 11.5495 27.3811 11.7295C27.5911 11.9095 27.6211 12.2295 27.4411 12.4395L26.8511 13.1295C23.5011 17.0495 19.0811 19.7795 14.0611 21.0295C14.0211 21.0295 13.9811 21.0395 13.9411 21.0395V21.0495Z" fill="#121212"/>
<path d="M27.0625 16.3601C26.7825 16.3601 26.5625 16.1401 26.5625 15.8601V12.6201H23.3125C23.0325 12.6201 22.8125 12.4001 22.8125 12.1201C22.8125 11.8401 23.0325 11.6201 23.3125 11.6201H27.0625C27.3425 11.6201 27.5625 11.8401 27.5625 12.1201V15.8601C27.5625 16.1401 27.3425 16.3601 27.0625 16.3601Z" fill="#121212"/>
<path d="M24.3397 33.3097H16.6497C9.92969 33.3097 7.17969 30.5697 7.17969 23.8397V16.1497C7.17969 9.42969 9.91969 6.67969 16.6497 6.67969H24.3397C31.0597 6.67969 33.8097 9.41969 33.8097 16.1497V23.8397C33.8097 30.5597 31.0697 33.3097 24.3397 33.3097ZM16.6497 7.68969C10.5597 7.68969 8.17969 10.0597 8.17969 16.1597V23.8497C8.17969 29.9397 10.5497 32.3197 16.6497 32.3197H24.3397C30.4297 32.3197 32.8097 29.9497 32.8097 23.8497V16.1597C32.8097 10.0697 30.4397 7.68969 24.3397 7.68969H16.6497Z" fill="#121212"/>
</g>
</g>
<defs>
<clipPath id="clip0_1607_1867">
<rect width="40" height="40" fill="white" transform="translate(0.5)"/>
</clipPath>
<clipPath id="clip1_1607_1867">
<rect width="40" height="40" fill="white" transform="translate(0.5)"/>
</clipPath>
</defs>
</svg>
