<svg width="24" height="24" viewBox="0 0 24 24" fill="none" xmlns="http://www.w3.org/2000/svg">
<g clip-path="url(#clip0_839_2912)">
<path d="M19.4222 14.0041C19.4222 17.0401 16.9622 19.5001 13.9262 19.5001C10.8902 19.5001 8.43018 17.0401 8.43018 14.0041C8.43018 10.9681 10.8902 8.50806 13.9262 8.50806C16.9622 8.50806 19.4222 10.9681 19.4222 14.0041Z" fill="#FFCB09"/>
<path d="M12.0001 20.5441C7.29005 20.5441 3.45605 16.7101 3.45605 12.0001C3.45605 7.29005 7.29005 3.45605 12.0001 3.45605C16.7101 3.45605 20.5441 7.29005 20.5441 12.0001C20.5441 16.7101 16.7101 20.5441 12.0001 20.5441ZM12.0001 4.05605C7.62005 4.05605 4.05605 7.62005 4.05605 12.0001C4.05605 16.3801 7.62005 19.9441 12.0001 19.9441C16.3801 19.9441 19.9441 16.3801 19.9441 12.0001C19.9441 7.62005 16.3801 4.05605 12.0001 4.05605Z" fill="#121212"/>
<path d="M15.0601 14.922C15.0061 14.922 14.9521 14.91 14.9041 14.88L11.5441 12.876C11.4541 12.822 11.4001 12.726 11.4001 12.618V8.29805C11.4001 8.13005 11.5321 7.99805 11.7001 7.99805C11.8681 7.99805 12.0001 8.13005 12.0001 8.29805V12.45L15.2161 14.364C15.3601 14.448 15.4081 14.634 15.3181 14.778C15.2641 14.874 15.1621 14.922 15.0601 14.922Z" fill="#121212"/>
</g>
<defs>
<clipPath id="clip0_839_2912">
<rect width="24" height="24" fill="white"/>
</clipPath>
</defs>
</svg>
