<svg width="41" height="40" viewBox="0 0 41 40" fill="none" xmlns="http://www.w3.org/2000/svg">
<g id="Layer_1" clip-path="url(#clip0_3865_14934)">
<g id="Group">
<path id="Vector" d="M18.139 17.5801H24.329C25.539 17.5801 26.519 18.5601 26.519 19.7701V32.9401H15.959V19.7701C15.959 18.5601 16.939 17.5801 18.149 17.5801H18.139Z" fill="#FFCB09"/>
<g id="Group_2">
<path id="Vector_2" d="M26.0296 33.02H11.0996C10.8196 33.02 10.5996 32.8 10.5996 32.52V11.31C10.5996 9.22003 12.2996 7.53003 14.3796 7.53003H22.7396C24.8296 7.53003 26.5196 9.23003 26.5196 11.31V32.52C26.5196 32.8 26.2996 33.02 26.0196 33.02H26.0296ZM11.5996 32.02H25.5296V11.31C25.5296 9.78003 24.2796 8.53003 22.7496 8.53003H14.3896C12.8596 8.53003 11.6096 9.78003 11.6096 11.31V32.02H11.5996Z" fill="#121212"/>
<path id="Vector_3" d="M21.3698 17.79H15.7698C14.8498 17.79 14.0898 17.04 14.0898 16.11V13.69C14.0898 12.76 14.8398 12.01 15.7698 12.01H21.3698C22.2998 12.01 23.0498 12.76 23.0498 13.69V16.11C23.0498 17.04 22.2998 17.79 21.3698 17.79ZM15.7698 13.01C15.3998 13.01 15.0898 13.31 15.0898 13.69V16.11C15.0898 16.48 15.3898 16.79 15.7698 16.79H21.3698C21.7398 16.79 22.0498 16.49 22.0498 16.11V13.69C22.0498 13.32 21.7498 13.01 21.3698 13.01H15.7698Z" fill="#121212"/>
</g>
<g id="Group_3">
<path id="Vector_4" d="M29.639 27.2901C28.549 27.2901 27.649 26.4301 27.649 25.3801V23.7101H26.459C26.179 23.7101 25.959 23.4901 25.959 23.2101C25.959 22.9301 26.179 22.7101 26.459 22.7101H28.149C28.429 22.7101 28.649 22.9301 28.649 23.2101V25.3801C28.649 25.8801 29.089 26.2901 29.639 26.2901C30.189 26.2901 30.619 25.8801 30.619 25.3801V11.5301L29.299 9.67011C29.139 9.44011 29.189 9.13011 29.419 8.97011C29.639 8.81011 29.959 8.86011 30.119 9.09011L31.529 11.0801C31.589 11.1601 31.619 11.2701 31.619 11.3701V25.3801C31.619 26.4301 30.729 27.2901 29.639 27.2901Z" fill="#121212"/>
<path id="Vector_5" d="M31.118 18.0402H30.218C28.858 18.0402 27.748 16.9802 27.748 15.6702V14.7802C27.748 14.6402 27.808 14.5102 27.908 14.4202L30.768 11.7002C30.968 11.5102 31.288 11.5202 31.478 11.7202C31.668 11.9202 31.658 12.2402 31.458 12.4302L28.748 15.0002V15.6802C28.748 16.4302 29.408 17.0502 30.218 17.0502H31.118C31.398 17.0502 31.618 17.2702 31.618 17.5502C31.618 17.8302 31.398 18.0502 31.118 18.0502V18.0402Z" fill="#121212"/>
</g>
</g>
</g>
<defs>
<clipPath id="clip0_3865_14934">
<rect width="40" height="40" fill="white" transform="translate(0.5)"/>
</clipPath>
</defs>
</svg>
