<?xml version="1.0" encoding="UTF-8"?>
<svg id="Layer_1" data-name="Layer 1" xmlns="http://www.w3.org/2000/svg" xmlns:xlink="http://www.w3.org/1999/xlink" viewBox="0 0 40 40">
  <defs>
    <clipPath id="clippath">
      <rect width="40" height="40" fill="none" stroke-width="0"/>
    </clipPath>
    <clipPath id="clippath-1">
      <rect width="40" height="40" fill="none" stroke-width="0"/>
    </clipPath>
  </defs>
  <g clip-path="url(#clippath)">
    <g clip-path="url(#clippath-1)">
      <g>
        <path d="M16.48,15.08c0-4.51,3.64-7.59,8.15-7.59s8.17,3.66,8.17,8.17l-3-.66-3.23,1.01-3-1.19-3.45,1.19-3.65-.92h.01Z" fill="#ffcb09" stroke-width="0"/>
        <path d="M20,26.79h-.19c-2.03-.06-3.56-1.66-3.56-3.63s1.63-3.64,3.64-3.64,3.64,1.63,3.64,3.64-1.55,3.57-3.51,3.63h-.02ZM19.89,20.52c-1.46,0-2.64,1.18-2.64,2.64s1.11,2.59,2.54,2.63h.23c1.41-.06,2.51-1.21,2.52-2.64,0-1.45-1.18-2.64-2.64-2.64h-.01Z" fill="#121212" stroke-width="0"/>
        <path d="M20,34.53c-1.38,0-2.77-.35-3.82-1.06-.97-.65-1.5-1.53-1.51-2.49,0-.96.53-1.85,1.51-2.5,2.11-1.4,5.54-1.4,7.64,0,.97.65,1.5,1.53,1.51,2.49,0,.96-.53,1.85-1.51,2.5-1.05.7-2.44,1.06-3.82,1.06ZM16.74,29.32c-.68.46-1.06,1.05-1.06,1.67s.38,1.2,1.06,1.66c1.77,1.18,4.76,1.18,6.53,0,.69-.46,1.06-1.05,1.06-1.67s-.38-1.2-1.06-1.66c-1.76-1.18-4.75-1.18-6.53,0Z" fill="#121212" stroke-width="0"/>
        <path d="M25.22,26.89c-.26,0-.54-.19-.57-.45-.03-.27.09-.52.37-.55.1-.01.2-.01.3,0,.99-.04,1.82-.91,1.82-1.98s-.89-1.98-1.98-1.98c-.28,0-.5-.22-.5-.5s.22-.5.5-.5c1.64,0,2.98,1.33,2.98,2.98s-1.26,2.92-2.87,2.98h-.05Z" fill="#121212" stroke-width="0"/>
        <path d="M26.52,33.25c-.23,0-.44-.16-.49-.4-.06-.27.12-.54.39-.59.45-.09.86-.28,1.18-.52.41-.31.63-.7.63-1.11s-.22-.81-.63-1.11c-.32-.24-.71-.42-1.18-.52-.27-.06-.44-.33-.38-.6s.33-.44.6-.38c.61.14,1.13.37,1.56.7.65.49,1.02,1.18,1.02,1.91s-.38,1.42-1.03,1.91c-.44.34-.99.58-1.58.71-.04,0-.07,0-.1,0h.01Z" fill="#121212" stroke-width="0"/>
        <path d="M14.77,26.89h-.04c-1.61-.06-2.87-1.37-2.87-2.98s1.33-2.98,2.98-2.98c.28,0,.5.22.5.5s-.22.5-.5.5c-1.09,0-1.98.89-1.98,1.98s.84,1.94,1.9,1.98h.22c.27.03.47.28.44.55-.03.28-.28.47-.55.44h-.11.01Z" fill="#121212" stroke-width="0"/>
        <path d="M13.48,33.25s-.07,0-.1,0c-.6-.12-1.15-.37-1.59-.71-.65-.49-1.02-1.18-1.02-1.91s.38-1.42,1.03-1.91c.42-.32.95-.56,1.55-.7.27-.06.54.11.6.38.06.27-.11.54-.38.6-.47.1-.86.28-1.17.52-.41.31-.63.7-.63,1.11s.22.81.63,1.11c.33.25.74.43,1.19.53.27.06.44.32.39.59-.05.24-.26.4-.49.4h-.01Z" fill="#121212" stroke-width="0"/>
        <path d="M13.35,17.76c-.28,0-.5-.22-.5-.5,0-1.28-1.27-2.32-2.82-2.32s-2.82,1.04-2.82,2.32c0,.28-.22.5-.5.5s-.5-.22-.5-.5c0-1.83,1.71-3.32,3.82-3.32s3.82,1.49,3.82,3.32c0,.28-.22.5-.5.5Z" fill="#121212" stroke-width="0"/>
        <path d="M20,17.76c-.28,0-.5-.22-.5-.5,0-1.28-1.27-2.32-2.82-2.32s-2.82,1.04-2.82,2.32c0,.28-.22.5-.5.5s-.5-.22-.5-.5c0-1.83,1.71-3.32,3.82-3.32s3.82,1.49,3.82,3.32c0,.28-.22.5-.5.5Z" fill="#121212" stroke-width="0"/>
        <path d="M26.65,17.76c-.28,0-.5-.22-.5-.5,0-1.28-1.27-2.32-2.82-2.32s-2.82,1.04-2.82,2.32c0,.28-.22.5-.5.5s-.5-.22-.5-.5c0-1.83,1.71-3.32,3.82-3.32s3.82,1.49,3.82,3.32c0,.28-.22.5-.5.5Z" fill="#121212" stroke-width="0"/>
        <path d="M33.3,17.76c-.28,0-.5-.22-.5-.5,0-1.28-1.27-2.32-2.82-2.32s-2.82,1.04-2.82,2.32c0,.28-.22.5-.5.5s-.5-.22-.5-.5c0-1.83,1.71-3.32,3.82-3.32s3.82,1.49,3.82,3.32c0,.28-.22.5-.5.5Z" fill="#121212" stroke-width="0"/>
        <path d="M33.3,17.74c-.28,0-.5-.22-.5-.5,0-5.94-5.74-10.77-12.79-10.77s-12.79,4.83-12.79,10.77c0,.28-.22.5-.5.5s-.5-.22-.5-.5c0-6.49,6.19-11.77,13.79-11.77s13.79,5.28,13.79,11.77c0,.28-.22.5-.5.5Z" fill="#121212" stroke-width="0"/>
      </g>
    </g>
  </g>
</svg>