<svg width="41" height="40" viewBox="0 0 41 40" fill="none" xmlns="http://www.w3.org/2000/svg">
<g id="Layer_1" clip-path="url(#clip0_4281_7470)">
<g id="Group">
<path id="Vector" d="M25.3916 12.5399H17.8516L19.5416 8.18994H23.7016L25.3916 12.5399Z" fill="#FFCB09"/>
<path id="Vector_2" d="M29.3505 20.3598H21.8105L23.5005 16.0098H27.6605L29.3505 20.3598Z" fill="#FFCB09"/>
<path id="Vector_3" d="M20.4502 20.3598H12.9102L14.6002 16.0098H18.7602L20.4502 20.3598Z" fill="#FFCB09"/>
<path id="Vector_4" d="M15.4306 26.9999H7.89062L9.58063 22.6499H13.7406L15.4306 26.9999Z" fill="#FFCB09"/>
<path id="Vector_5" d="M24.7509 26.9999H17.2109L18.9009 22.6499H23.0609L24.7509 26.9999Z" fill="#FFCB09"/>
<path id="Vector_6" d="M34.4209 26.9999H26.8809L28.5709 22.6499H32.7309L34.4209 26.9999Z" fill="#FFCB09"/>
</g>
<g id="Group_2">
<g id="Group_3">
<g id="Group_4">
<path id="Vector_7" d="M15.72 28.0501H6.38996C6.22996 28.0501 6.07996 27.9801 5.98996 27.8501C5.89996 27.7201 5.86996 27.5601 5.90996 27.4101L7.99996 20.1901C8.05996 19.9801 8.25996 19.8301 8.47996 19.8301H13.63C13.85 19.8301 14.05 19.9801 14.11 20.1901L16.2 27.4101C16.24 27.5601 16.21 27.7201 16.12 27.8501C16.03 27.9801 15.88 28.0501 15.72 28.0501ZM7.04996 27.0501H15.05L13.25 20.8301H8.84996L7.04996 27.0501Z" fill="#121212"/>
<path id="Vector_8" d="M25.0598 28.0501H15.7298C15.5698 28.0501 15.4198 27.9801 15.3298 27.8501C15.2398 27.7201 15.2098 27.5601 15.2498 27.4101L17.3398 20.1901C17.3998 19.9801 17.5998 19.8301 17.8198 19.8301H22.9698C23.1898 19.8301 23.3898 19.9801 23.4498 20.1901L25.5398 27.4101C25.5798 27.5601 25.5498 27.7201 25.4598 27.8501C25.3698 27.9801 25.2198 28.0501 25.0598 28.0501ZM16.3898 27.0501H24.3898L22.5898 20.8301H18.1898L16.3898 27.0501Z" fill="#121212"/>
<path id="Vector_9" d="M34.3899 28.0501H25.0599C24.8999 28.0501 24.7499 27.9801 24.6599 27.8501C24.5699 27.7201 24.5399 27.5601 24.5799 27.4101L26.6699 20.1901C26.7299 19.9801 26.9299 19.8301 27.1499 19.8301H32.2999C32.5199 19.8301 32.7199 19.9801 32.7799 20.1901L34.8699 27.4101C34.9099 27.5601 34.8799 27.7201 34.7899 27.8501C34.6999 27.9801 34.5499 28.0501 34.3899 28.0501ZM25.7199 27.0501H33.7199L31.9199 20.8301H27.5199L25.7199 27.0501Z" fill="#121212"/>
</g>
<path id="Vector_10" d="M20.3899 20.8401H11.0599C10.8999 20.8401 10.7499 20.7701 10.6599 20.6401C10.5699 20.5101 10.5399 20.3501 10.5799 20.2001L12.6699 12.9801C12.7299 12.7701 12.9299 12.6201 13.1499 12.6201H18.2999C18.5199 12.6201 18.7199 12.7701 18.7799 12.9801L20.8699 20.2001C20.9099 20.3501 20.8799 20.5101 20.7899 20.6401C20.6999 20.7701 20.5499 20.8401 20.3899 20.8401ZM11.7199 19.8401H19.7199L17.9199 13.6201H13.5199L11.7199 19.8401Z" fill="#121212"/>
<path id="Vector_11" d="M29.72 20.8401H20.39C20.23 20.8401 20.08 20.7701 19.99 20.6401C19.9 20.5101 19.87 20.3501 19.91 20.2001L22 12.9801C22.06 12.7701 22.26 12.6201 22.48 12.6201H27.63C27.85 12.6201 28.05 12.7701 28.11 12.9801L30.2 20.2001C30.24 20.3501 30.21 20.5101 30.12 20.6401C30.03 20.7701 29.88 20.8401 29.72 20.8401ZM21.05 19.8401H29.05L27.25 13.6201H22.85L21.05 19.8401Z" fill="#121212"/>
<path id="Vector_12" d="M25.0604 13.6201H15.7304C15.5704 13.6201 15.4204 13.5401 15.3304 13.4101C15.2404 13.2801 15.2104 13.1101 15.2604 12.9601L17.3504 6.49014C17.4204 6.28014 17.6104 6.14014 17.8304 6.14014H22.9804C23.2004 6.14014 23.3904 6.28014 23.4604 6.49014L25.5504 12.9601C25.6004 13.1101 25.5704 13.2801 25.4804 13.4101C25.3904 13.5401 25.2404 13.6201 25.0804 13.6201H25.0604ZM16.4104 12.6201H24.3704L22.6004 7.15014H18.1804L16.4104 12.6201Z" fill="#121212"/>
</g>
</g>
</g>
<defs>
<clipPath id="clip0_4281_7470">
<rect width="40" height="40" fill="white" transform="translate(0.5)"/>
</clipPath>
</defs>
</svg>
