<svg width="32" height="32" viewBox="0 0 32 32" fill="none" xmlns="http://www.w3.org/2000/svg">
<g id="Layer_1" clip-path="url(#clip0_3410_2022)">
<g id="Group">
<path id="Vector" d="M22.8803 8.43992V14.4239C22.8803 16.5359 21.8963 17.9439 19.6003 17.9439H14.3523C12.0563 17.9439 11.0723 16.5359 11.0723 14.4239V8.43992C11.0723 6.32792 12.0563 4.91992 14.3523 4.91992H19.6003C21.8963 4.91992 22.8803 6.32792 22.8803 8.43992Z" fill="#FFCB09"/>
<g id="Group_2">
<path id="Vector_2" d="M23.8086 15.1195H20.2086C19.9846 15.1195 19.8086 14.9435 19.8086 14.7195V7.36747C19.8086 6.69547 20.0726 6.06347 20.5526 5.59147C21.0326 5.11947 21.6566 4.85547 22.3366 4.85547C23.5526 4.85547 24.6966 5.33547 25.5766 6.19947C26.4486 7.08747 26.9286 8.23947 26.9286 9.46347V12.0155C26.9286 13.9035 25.7046 15.1275 23.8166 15.1275L23.8086 15.1195ZM20.6086 14.3195H23.8086C25.2566 14.3195 26.1206 13.4555 26.1206 12.0075V9.45547C26.1206 8.44747 25.7206 7.48747 25.0086 6.75947C24.2886 6.04747 23.3366 5.65547 22.3366 5.64747H22.3286C21.8726 5.64747 21.4486 5.82347 21.1206 6.15147C20.7926 6.47947 20.6166 6.90347 20.6166 7.36747V14.3195H20.6086Z" fill="#121212"/>
<path id="Vector_3" d="M12.8405 27.3037C12.4485 27.3037 12.0805 27.1517 11.8085 26.8717L10.0565 25.1117C9.82445 24.8797 9.45645 24.8557 9.19245 25.0477L7.39245 26.3917C6.95245 26.7277 6.36845 26.7757 5.87245 26.5357C5.37645 26.2877 5.06445 25.7917 5.06445 25.2317V9.45566C5.06445 6.48766 6.70445 4.84766 9.67245 4.84766H22.2965C22.5205 4.84766 22.6965 5.02366 22.6965 5.24766C22.6965 5.47166 22.5205 5.64766 22.2965 5.64766C21.3605 5.64766 20.5925 6.41566 20.5925 7.35166V25.2317C20.5925 25.7837 20.2885 26.2797 19.7925 26.5277C19.2965 26.7757 18.7125 26.7197 18.2725 26.3917L16.4725 25.0477C16.2165 24.8477 15.8565 24.8797 15.6245 25.1037L13.8565 26.8717C13.5845 27.1437 13.2165 27.2957 12.8245 27.2957L12.8405 27.3037ZM9.59245 24.1277C9.96845 24.1277 10.3445 24.2717 10.6245 24.5597L12.3765 26.3197C12.4965 26.4477 12.6645 26.5117 12.8405 26.5117C13.0165 26.5117 13.1845 26.4477 13.3045 26.3197L15.0725 24.5517C15.5845 24.0397 16.4005 23.9837 16.9685 24.4237L18.7605 25.7677C18.9605 25.9197 19.2165 25.9437 19.4405 25.8317C19.6645 25.7197 19.8005 25.5037 19.8005 25.2477V7.35166C19.8005 6.69566 20.0565 6.09566 20.4725 5.64766H9.68045C7.15245 5.64766 5.87245 6.92766 5.87245 9.45566V25.2317C5.87245 25.4877 6.00845 25.7117 6.23245 25.8237C6.45645 25.9357 6.71245 25.9117 6.91245 25.7597L8.71245 24.4077C8.96845 24.2157 9.28045 24.1197 9.58445 24.1197L9.59245 24.1277Z" fill="#121212"/>
<path id="Vector_4" d="M16.0001 13.0158H9.68809C9.46409 13.0158 9.28809 12.8398 9.28809 12.6158C9.28809 12.3918 9.46409 12.2158 9.68809 12.2158H16.0001C16.2241 12.2158 16.4001 12.3918 16.4001 12.6158C16.4001 12.8398 16.2241 13.0158 16.0001 13.0158Z" fill="#121212"/>
<path id="Vector_5" d="M15.2083 17.2238H10.4723C10.2483 17.2238 10.0723 17.0478 10.0723 16.8238C10.0723 16.5998 10.2483 16.4238 10.4723 16.4238H15.2083C15.4323 16.4238 15.6083 16.5998 15.6083 16.8238C15.6083 17.0478 15.4323 17.2238 15.2083 17.2238Z" fill="#121212"/>
</g>
</g>
</g>
<defs>
<clipPath id="clip0_3410_2022">
<rect width="32" height="32" fill="white"/>
</clipPath>
</defs>
</svg>
