<svg width="34" height="34" viewBox="0 0 34 34" fill="none" xmlns="http://www.w3.org/2000/svg">
<g clip-path="url(#clip0_4813_26552)">
<path d="M19.3176 23.7794C23.405 19.094 21.253 14.2834 14.5985 9.38266C14.4619 9.2821 13.4861 8.49208 13.4187 8.64767C9.87232 16.8404 10.971 23.2883 18.4306 24.1218C18.7602 24.1586 19.0996 24.0293 19.3176 23.7794Z" fill="#FFCB09"/>
<path d="M24.7234 23.051H21.9485C21.7119 23.051 21.5206 22.8597 21.5206 22.6231C21.5206 22.3866 21.7119 22.1952 21.9485 22.1952H24.7234C24.8036 22.1952 24.8688 22.13 24.8688 22.0498V11.4078C24.8688 11.3275 24.8036 11.262 24.7234 11.262H18.6003C18.3637 11.262 18.1724 11.0706 18.1724 10.834C18.1724 10.5975 18.3637 10.4061 18.6003 10.4061H24.7234C25.2758 10.4061 25.7246 10.8554 25.7246 11.4078V22.0498C25.7246 22.6018 25.2758 23.051 24.7234 23.051Z" fill="black"/>
<path d="M10.328 23.0519H6.11721C5.54807 23.0519 5.08496 22.5889 5.08496 22.0194V11.4401C5.08496 10.8705 5.54798 10.4071 6.11721 10.4071H9.80639C10.0429 10.4071 10.2343 10.5985 10.2343 10.835C10.2343 11.0716 10.0429 11.2629 9.80639 11.2629H6.11721C6.02024 11.2629 5.94082 11.3424 5.94082 11.4401V22.0194C5.94082 22.1168 6.02024 22.1961 6.11721 22.1961H10.328C10.5645 22.1961 10.7559 22.3875 10.7559 22.624C10.7559 22.8606 10.5645 23.0519 10.328 23.0519Z" fill="black"/>
<path d="M18.5931 24.9337C15.1621 24.9337 12.6957 23.9516 11.2606 22.0147C9.2104 19.247 9.22375 14.5959 11.3007 7.79559C11.3676 7.57915 11.5272 7.40653 11.7412 7.32257C11.9568 7.23819 12.1917 7.2553 12.3864 7.3681C17.8692 10.5269 20.9074 13.7175 21.6738 17.1217C22.1954 19.4355 21.6162 21.8275 19.9537 24.2308C19.6503 24.6675 19.1589 24.9228 18.5931 24.9337ZM12.0789 8.17875C10.1265 14.6284 10.0838 18.9883 11.9477 21.5048C13.2131 23.2123 15.4488 24.0777 18.5931 24.0777C18.8564 24.084 19.1046 23.9536 19.25 23.743C20.7712 21.5449 21.3053 19.3802 20.8389 17.3096C20.1435 14.2197 17.1965 11.1483 12.0789 8.17875Z" fill="black"/>
<path d="M20.7314 26.7295C20.6136 26.7295 20.4957 26.6806 20.4105 26.585C17.1559 22.9042 14.9928 18.7554 13.9807 14.2539C13.9289 14.0237 14.0743 13.7946 14.305 13.7428C14.5407 13.691 14.7646 13.8364 14.8165 14.0666C15.7953 18.4252 17.8939 22.4466 21.0524 26.0182C21.2087 26.1949 21.192 26.4654 21.0148 26.6221C20.9338 26.694 20.8326 26.7295 20.7314 26.7295Z" fill="black"/>
<path d="M27.6504 20.0477H25.7097C25.4731 20.0477 25.2817 19.8564 25.2817 19.6198C25.2817 19.3833 25.4731 19.1919 25.7097 19.1919H27.6504C27.8761 19.1919 28.0591 19.0088 28.0591 18.7836V14.5599C28.0591 14.3347 27.876 14.1516 27.6504 14.1516H25.7097C25.4731 14.1516 25.2817 13.9602 25.2817 13.7237C25.2817 13.4871 25.4731 13.2958 25.7097 13.2958H27.6504C28.3475 13.2958 28.9149 13.8629 28.9149 14.5599V18.7836C28.9149 19.4807 28.3474 20.0477 27.6504 20.0477Z" fill="black"/>
</g>
<defs>
<clipPath id="clip0_4813_26552">
<rect width="34" height="34" fill="white"/>
</clipPath>
</defs>
</svg>
