<?xml version="1.0" encoding="UTF-8"?>
<svg id="Layer_1" data-name="Layer 1" xmlns="http://www.w3.org/2000/svg" xmlns:xlink="http://www.w3.org/1999/xlink" viewBox="0 0 40 40">
  <defs>
    <clipPath id="clippath">
      <rect width="40" height="40" fill="none" stroke-width="0"/>
    </clipPath>
    <clipPath id="clippath-1">
      <rect width="40" height="40" fill="none" stroke-width="0"/>
    </clipPath>
  </defs>
  <g clip-path="url(#clippath)">
    <g clip-path="url(#clippath-1)">
      <g>
        <path d="M21.07,18.38c-.17.06-.44.06-.61,0-1.43-.53-4.63-2.71-4.63-6.42,0-1.64,1.23-2.96,2.74-2.96.9,0,1.69.47,2.19,1.18.5-.72,1.3-1.18,2.19-1.18,1.51,0,2.74,1.33,2.74,2.96,0,3.71-3.19,5.89-4.63,6.42h.01Z" fill="#ffcb09" stroke-width="0"/>
        <path d="M11.9,34.2c-.13,0-.26-.05-.35-.15l-5.9-5.9c-.09-.09-.15-.22-.15-.35s.05-.26.15-.35l5.9-5.9s.02-.02.03-.03c.86-.73,2.12-1.15,3.44-1.15,1.23,0,2.39.35,3.26,1,.59.43,1.23.66,1.87.66h2.86c1.06,0,1.92.86,1.92,1.92v.13c0,1.06-.86,1.92-1.92,1.92h-3.48c-.36,0-.65.29-.65.65s.29.65.65.65h5.56l6.06-4.54c.45-.34,1.03-.48,1.59-.38.57.1,1.05.41,1.37.89.13.2.1.47-.07.64l-7.44,7.02c-.75.71-1.74,1.1-2.77,1.1h-8.63c-.58,0-1.15.24-1.57.65l-1.37,1.37c-.1.1-.23.15-.35.15h-.01ZM6.7,27.8l5.2,5.2,1.02-1.02c.6-.6,1.43-.94,2.27-.94h8.63c.78,0,1.52-.29,2.09-.83l7.08-6.68c-.12-.08-.26-.14-.41-.17-.29-.05-.58.02-.82.2l-6.2,4.64c-.09.06-.19.1-.3.1h-5.73c-.91,0-1.65-.74-1.65-1.65s.74-1.65,1.65-1.65h3.48c.51,0,.92-.41.92-.92v-.13c0-.51-.41-.92-.92-.92h-2.86c-.85,0-1.7-.29-2.46-.85-.69-.51-1.66-.8-2.66-.8-1.08,0-2.1.33-2.78.9l-5.53,5.53h-.02Z" fill="#121212" stroke-width="0"/>
        <path d="M19.85,18.45c-.21,0-.41-.03-.58-.09-2.57-.88-6.64-4-6.64-8.61,0-2.35,1.9-4.25,4.23-4.25,1.14,0,2.2.44,2.98,1.24.79-.79,1.85-1.24,2.98-1.24,2.33,0,4.23,1.91,4.23,4.25,0,4.62-4.07,7.73-6.64,8.61-.17.06-.37.09-.58.09h.02ZM16.87,6.5c-1.78,0-3.23,1.46-3.23,3.25,0,4.59,4.42,7.14,5.96,7.67.12.04.38.04.51,0,1.55-.53,5.96-3.08,5.96-7.67,0-1.79-1.45-3.25-3.23-3.25-1.02,0-1.97.47-2.58,1.3-.19.25-.61.25-.8,0-.62-.83-1.56-1.3-2.58-1.3h-.01Z" fill="#121212" stroke-width="0"/>
      </g>
    </g>
  </g>
</svg>