<svg width="32" height="32" viewBox="0 0 32 32" fill="none" xmlns="http://www.w3.org/2000/svg">
<g id="Layer_1" clip-path="url(#clip0_3410_1050)">
<path id="Vector" d="M22.2559 18.6084C22.2559 20.5844 20.6559 22.1924 18.6719 22.1924C16.6879 22.1924 15.0879 20.5924 15.0879 18.6084C15.0879 16.6244 16.6879 15.0244 18.6719 15.0244C20.6559 15.0244 22.2559 16.6244 22.2559 18.6084Z" fill="#FFCB09"/>
<g id="Group">
<path id="Vector_2" d="M5.31992 22.5845C5.09592 22.5845 4.91992 22.4085 4.91992 22.1845C4.91992 21.9605 5.09592 21.7845 5.31992 21.7845L26.6799 21.7285C26.9039 21.7285 27.0799 21.9045 27.0799 22.1285C27.0799 22.3525 26.9039 22.5285 26.6799 22.5285L5.31992 22.5845Z" fill="#121212"/>
<path id="Vector_3" d="M18.5117 22.4165H13.3037V22.0165C13.3037 20.5525 14.4717 19.3525 15.9117 19.3525C17.3517 19.3525 18.5197 20.5445 18.5197 22.0165V22.4165H18.5117ZM15.9037 21.6165H17.6637C17.4877 20.7845 16.7597 20.1525 15.9037 20.1525C15.0477 20.1525 14.3197 20.7765 14.1437 21.6165H15.9037Z" fill="#121212"/>
<path id="Vector_4" d="M16.0084 14.6084C15.7844 14.6084 15.6084 14.4324 15.6084 14.2084V10.2564C15.6084 10.0324 15.7844 9.85645 16.0084 9.85645C16.2324 9.85645 16.4084 10.0324 16.4084 10.2564V14.2084C16.4084 14.4324 16.2324 14.6084 16.0084 14.6084Z" fill="#121212"/>
<path id="Vector_5" d="M21.0561 16.5766C20.9761 16.5766 20.9041 16.5526 20.8321 16.5046C20.6481 16.3846 20.6001 16.1286 20.7281 15.9526L22.9441 12.6886C23.0721 12.5046 23.3201 12.4566 23.4961 12.5846C23.6801 12.7126 23.7281 12.9606 23.6001 13.1366L21.3841 16.4006C21.3041 16.5126 21.1841 16.5766 21.0561 16.5766Z" fill="#121212"/>
<path id="Vector_6" d="M11.0318 16.3439C10.9118 16.3439 10.7997 16.2959 10.7197 16.1999L8.26375 13.1919C8.12775 13.0239 8.15175 12.7679 8.31975 12.6319C8.48775 12.4959 8.74375 12.5199 8.87975 12.6879L11.3358 15.6959C11.4718 15.8639 11.4478 16.1199 11.2798 16.2559C11.2078 16.3199 11.1198 16.3439 11.0237 16.3439H11.0318Z" fill="#121212"/>
<path id="Vector_7" d="M16.1355 20.1205C16.0715 20.1205 16.0155 20.1045 15.9515 20.0805C15.7515 19.9765 15.6795 19.7365 15.7755 19.5445L16.9835 17.1845C17.0795 16.9845 17.3195 16.9045 17.5195 17.0085C17.7195 17.1125 17.7915 17.3525 17.6955 17.5445L16.4875 19.9045C16.4155 20.0405 16.2795 20.1205 16.1275 20.1205H16.1355Z" fill="#121212"/>
<path id="Vector_8" d="M26.6799 22.4724C26.4559 22.4724 26.2799 22.2964 26.2799 22.0724V20.5124C26.2799 19.2644 26.0959 18.1284 25.7279 17.1444C24.1999 13.0004 20.2879 10.2084 15.9999 10.2084C11.4479 10.2084 7.35192 13.3524 6.03992 17.8564C5.82392 18.6004 5.71992 19.4404 5.71992 20.4404V22.0644C5.71992 22.2884 5.54392 22.4644 5.31992 22.4644C5.09592 22.4644 4.91992 22.2884 4.91992 22.0644V20.4404C4.91992 19.3684 5.03192 18.4484 5.27192 17.6324C6.68792 12.7844 11.0959 9.40039 15.9999 9.40039C20.6159 9.40039 24.8319 12.4004 26.4799 16.8564C26.8799 17.9284 27.0799 19.1604 27.0799 20.4964V22.0564C27.0799 22.2804 26.9039 22.4564 26.6799 22.4564V22.4724Z" fill="#121212"/>
<path id="Vector_9" d="M22.9041 22.5288C22.6801 22.5288 22.5041 22.3528 22.5041 22.1288V21.1208C22.5041 20.3288 22.3841 19.6168 22.1601 18.9928C21.1921 16.3688 18.7201 14.6008 16.0081 14.6008C13.1281 14.6008 10.5361 16.5928 9.7041 19.4408C9.5681 19.9048 9.5041 20.4408 9.5041 21.0728V22.1208C9.5041 22.3448 9.3281 22.5208 9.1041 22.5208C8.8801 22.5208 8.7041 22.3448 8.7041 22.1208V21.0728C8.7041 20.3688 8.7841 19.7608 8.9361 19.2168C9.8641 16.0248 12.7761 13.8008 16.0081 13.8008C19.0481 13.8008 21.8241 15.7768 22.9121 18.7128C23.1761 19.4248 23.3041 20.2328 23.3041 21.1128V22.1208C23.3041 22.3448 23.1281 22.5208 22.9041 22.5208V22.5288Z" fill="#121212"/>
</g>
</g>
<defs>
<clipPath id="clip0_3410_1050">
<rect width="32" height="32" fill="white"/>
</clipPath>
</defs>
</svg>
