<svg width="52" height="17" viewBox="0 0 52 17" fill="none" xmlns="http://www.w3.org/2000/svg">
<path d="M0.445312 0.5H52.4453L49.4453 8.5L52.4453 16.5H0.445312L3.44531 8.5L0.445312 0.5Z" fill="#EF4444"/>
<path d="M21.5154 5H22.6054V12H21.6954L17.8154 6.93V12H16.7254V5H17.6354L21.5154 10.07V5ZM26.3708 12.13C24.8008 12.13 23.6908 11.08 23.6908 9.49C23.6908 7.99 24.7208 6.84 26.2808 6.84C27.9108 6.84 28.8408 7.97 28.8408 9.39C28.8408 9.54 28.8308 9.66 28.8108 9.81H24.7208C24.7908 10.64 25.3708 11.23 26.3908 11.23C27.1408 11.23 27.6108 10.86 27.8208 10.42L28.7808 10.7C28.4708 11.38 27.6808 12.13 26.3708 12.13ZM24.7208 9.11L27.8108 9.1C27.7508 8.33 27.2008 7.74 26.2808 7.74C25.3808 7.74 24.7908 8.39 24.7208 9.11ZM35.7048 6.97H36.7948L35.0648 12H34.0648L32.9148 8.48L31.7648 12H30.7748L29.0448 6.97H30.1248L31.3048 10.69L32.4748 6.97H33.3648L34.5248 10.68L35.7048 6.97Z" fill="white"/>
</svg>
