<svg width="32" height="32" viewBox="0 0 32 32" fill="none" xmlns="http://www.w3.org/2000/svg">
<g id="Layer_1" clip-path="url(#clip0_3410_1963)">
<path id="Vector" d="M25.6396 16.1122V22.1282C25.6396 24.2482 24.5996 25.6642 22.1676 25.6642H16.6156C14.1836 25.6642 13.1436 24.2482 13.1436 22.1282V16.1122C13.1436 13.9922 14.1836 12.5762 16.6156 12.5762H22.1676C24.5996 12.5762 25.6396 13.9922 25.6396 16.1122Z" fill="#FFCB09"/>
<g id="Group">
<path id="Vector_2" d="M18.9279 26.4319H12.8399C7.58394 26.4319 5.33594 24.1919 5.33594 18.9279V12.8399C5.33594 7.58394 7.57594 5.33594 12.8399 5.33594H23.3199C23.5439 5.33594 23.7199 5.51194 23.7199 5.73594C23.7199 5.95994 23.5439 6.13594 23.3199 6.13594H12.8399C8.01594 6.13594 6.13594 8.01594 6.13594 12.8399V18.9279C6.13594 23.7519 8.01594 25.6319 12.8399 25.6319H18.9279C23.7519 25.6319 25.6319 23.7519 25.6319 18.9279V12.3919C25.6319 12.1679 25.8079 11.9919 26.0319 11.9919C26.2559 11.9919 26.4319 12.1679 26.4319 12.3919V18.9279C26.4319 24.1839 24.1919 26.4319 18.9279 26.4319Z" fill="black"/>
<path id="Vector_3" d="M20.56 17.3039H10.816C10.592 17.3039 10.416 17.1279 10.416 16.9039C10.416 16.6799 10.592 16.5039 10.816 16.5039H20.56C20.784 16.5039 20.96 16.6799 20.96 16.9039C20.96 17.1279 20.784 17.3039 20.56 17.3039Z" fill="black"/>
<path id="Vector_4" d="M17.208 21.3596H10.816C10.592 21.3596 10.416 21.1836 10.416 20.9596C10.416 20.7356 10.592 20.5596 10.816 20.5596H17.208C17.432 20.5596 17.608 20.7356 17.608 20.9596C17.608 21.1836 17.432 21.3596 17.208 21.3596Z" fill="black"/>
<path id="Vector_5" d="M15.6881 13.5197H10.8961C10.6721 13.5197 10.4961 13.3437 10.4961 13.1197C10.4961 12.8957 10.6721 12.7197 10.8961 12.7197H15.6881C15.9121 12.7197 16.0881 12.8957 16.0881 13.1197C16.0881 13.3437 15.9121 13.5197 15.6881 13.5197Z" fill="black"/>
</g>
<g id="Group_2">
<path id="Vector_6" d="M17.7922 15.1203C17.6482 15.1203 17.5122 15.0563 17.4162 14.9523C17.2962 14.8243 17.2563 14.6483 17.2963 14.4723L18.0482 11.6883L23.8162 6.85633C24.2722 6.47233 24.8242 6.28033 25.4082 6.28833C26.2802 6.31233 26.8882 6.75233 27.1282 7.54433C27.3762 8.37633 27.0802 9.31233 26.3682 9.91233L20.7682 14.6563L17.8802 15.1203C17.8802 15.1203 17.8242 15.1203 17.8002 15.1203H17.7922ZM18.7602 12.1363L18.1842 14.2483L20.4162 13.8883L25.8483 9.28833C26.3123 8.89633 26.5122 8.28833 26.3522 7.76033C26.2162 7.30433 25.9042 7.08833 25.3842 7.08033C25.0002 7.05633 24.6322 7.20833 24.3282 7.46433L18.7522 12.1363H18.7602Z" fill="black"/>
<path id="Vector_7" d="M18.6971 11.6436L18.1104 12.1875L20.2967 14.546L20.8834 14.0022L18.6971 11.6436Z" fill="black"/>
<path id="Vector_8" d="M23.7439 7.19735L23.1572 7.74121L25.3435 10.0997L25.9302 9.55588L23.7439 7.19735Z" fill="black"/>
</g>
</g>
<defs>
<clipPath id="clip0_3410_1963">
<rect width="32" height="32" fill="white"/>
</clipPath>
</defs>
</svg>
