<svg width="24" height="24" viewBox="0 0 24 24" fill="none" xmlns="http://www.w3.org/2000/svg">
<g id="Frame" clip-path="url(#clip0_3277_365)">
<path id="Vector" d="M18.1601 11.61C18.1601 11.61 14.1801 7.95999 12.3901 13.29C10.7301 18.24 11.9101 19.79 11.9101 19.79C11.9101 19.79 17.6201 19.35 19.3101 18.37C21.0001 17.39 19.9501 15.72 19.3101 14.88C18.6701 14.04 18.2001 12.92 18.1501 11.61H18.1601Z" fill="#FFCB09"/>
<path id="Vector_2" d="M19.7399 14.4604C18.9399 13.6604 18.7099 12.8804 18.7099 9.26039C18.7099 7.46039 18.1499 6.02039 17.0499 4.98039C16.4799 4.44039 15.8299 4.07039 15.1899 3.82039L15.1099 3.57039C14.8099 2.70039 14.1899 0.900391 11.9299 0.900391C9.66991 0.900391 9.02991 2.76039 8.71991 3.65039L8.66991 3.81039C8.02991 4.08039 7.37991 4.45039 6.80991 4.98039C5.70991 6.02039 5.14991 7.46039 5.14991 9.26039C5.14991 12.8804 4.91991 13.6604 4.11991 14.4604C3.43991 15.1404 3.08991 16.2204 3.21991 17.2104C3.31991 17.9704 3.67991 18.5704 4.23991 18.8904C5.10991 19.3904 6.32991 19.7604 7.86991 20.0204C8.38991 21.8204 10.0199 23.1004 11.9399 23.1004C13.8599 23.1004 15.4899 21.8304 16.0099 20.0204C17.5399 19.7604 18.7599 19.3904 19.6399 18.8904C20.1999 18.5704 20.5599 17.9804 20.6599 17.2104C20.7899 16.2104 20.4399 15.1304 19.7599 14.4604H19.7399ZM11.9199 2.10039C12.9699 2.10039 13.4299 2.65039 13.7499 3.40039C12.7499 3.21039 11.9899 3.24039 11.9499 3.25039C11.8899 3.25039 11.1099 3.21039 10.0899 3.40039C10.4199 2.67039 10.8999 2.10039 11.9099 2.10039H11.9199ZM11.9199 21.9004C10.7299 21.9004 9.69991 21.2204 9.19991 20.2104C10.0399 20.3004 10.9499 20.3704 11.9399 20.4004C12.9199 20.3704 13.8199 20.3004 14.6499 20.2104C14.1399 21.2204 13.1099 21.9004 11.9299 21.9004H11.9199ZM19.4499 17.0604C19.3999 17.4404 19.2399 17.7304 19.0199 17.8504C18.0799 18.3904 16.0799 19.0604 11.9399 19.1904C10.5599 19.1404 9.44991 19.0404 8.49991 18.9004C8.44991 18.8904 8.39991 18.8804 8.34991 18.8804C6.50991 18.6004 5.42991 18.2004 4.80991 17.8404C4.58991 17.7104 4.42991 17.4204 4.37991 17.0504C4.29991 16.4204 4.51991 15.7204 4.92991 15.3004C6.12991 14.1004 6.31991 12.8604 6.31991 9.25039C6.31991 7.80039 6.74991 6.65039 7.59991 5.84039C8.98991 4.52039 11.1399 4.43039 11.7699 4.43039C11.8699 4.43039 11.9299 4.43039 11.9499 4.43039C11.9799 4.43039 14.6099 4.31039 16.2299 5.84039C17.0799 6.65039 17.5099 7.79039 17.5099 9.25039C17.5099 12.8604 17.6899 14.0904 18.8999 15.3004C19.3199 15.7204 19.5399 16.4204 19.4499 17.0504V17.0604Z" fill="#1A1A1A"/>
</g>
<defs>
<clipPath id="clip0_3277_365">
<rect width="24" height="24" fill="white"/>
</clipPath>
</defs>
</svg>
