<svg width="22" height="22" viewBox="0 0 22 22" fill="none" xmlns="http://www.w3.org/2000/svg">
<path d="M11.1199 12.3799C11.1199 12.3799 11.0799 12.3799 11.0599 12.3799C11.0299 12.3799 10.9899 12.3799 10.9399 12.3799C8.76988 12.3099 7.12988 10.6099 7.12988 8.50988C7.12988 6.40988 8.86988 4.62988 11.0099 4.62988C13.1499 4.62988 14.8899 6.36988 14.8899 8.50988C14.8899 10.6099 13.2399 12.3099 11.1499 12.3899H11.1299L11.1199 12.3799ZM10.9999 5.81988C9.51988 5.81988 8.31988 7.01988 8.31988 8.49988C8.31988 9.97988 9.44988 11.1299 10.8999 11.1799C10.9399 11.1799 11.0399 11.1799 11.1399 11.1799C12.5699 11.1099 13.6799 9.93988 13.6899 8.49988C13.6899 7.01988 12.4899 5.81988 11.0099 5.81988H10.9999Z" fill="#1A1A1A"/>
<path d="M11.0001 21.5999C8.3501 21.5999 5.8101 20.6099 3.8501 18.8199C3.7101 18.6899 3.6401 18.4999 3.6601 18.3099C3.7801 17.1699 4.5001 16.0999 5.6901 15.2999C8.6301 13.3499 13.3901 13.3499 16.3001 15.2999C17.4901 16.0999 18.2101 17.1699 18.3301 18.3199C18.3501 18.5099 18.2801 18.6999 18.1401 18.8299C16.1801 20.6199 13.6501 21.6099 10.9901 21.6099L11.0001 21.5999ZM4.9101 18.1499C6.6101 19.5999 8.7601 20.3999 11.0001 20.3999C13.2401 20.3999 15.3901 19.5999 17.0901 18.1499C16.9201 17.4699 16.4101 16.8199 15.6301 16.2999C13.1301 14.6299 8.8801 14.6299 6.3601 16.2999C5.5801 16.8199 5.0801 17.4699 4.9101 18.1499Z" fill="#1A1A1A"/>
<path d="M10.9999 21.5999C5.1599 21.5999 0.399902 16.8399 0.399902 10.9999C0.399902 5.1599 5.1599 0.399902 10.9999 0.399902C16.8399 0.399902 21.5999 5.1599 21.5999 10.9999C21.5999 16.8399 16.8399 21.5999 10.9999 21.5999ZM10.9999 1.5999C5.8199 1.5999 1.5999 5.8199 1.5999 10.9999C1.5999 16.1799 5.8199 20.3999 10.9999 20.3999C16.1799 20.3999 20.3999 16.1799 20.3999 10.9999C20.3999 5.8199 16.1799 1.5999 10.9999 1.5999Z" fill="#1A1A1A"/>
</svg>
