<svg width="41" height="40" viewBox="0 0 41 40" fill="none" xmlns="http://www.w3.org/2000/svg">
<g clip-path="url(#clip0_1170_7995)">
<g clip-path="url(#clip1_1170_7995)">
<path d="M21.0069 19.5694C23.4769 19.5694 25.4669 17.5694 25.4669 15.1094C25.4669 12.6494 23.4669 10.6494 21.0069 10.6494C18.5469 10.6494 16.5469 12.6494 16.5469 15.1094C16.5469 17.5694 18.5469 19.5694 21.0069 19.5694Z" fill="#FFCB09"/>
<path d="M30.7072 33.2998C30.7072 29.8498 27.2672 27.0498 23.0372 27.0498C18.8072 27.0498 15.3672 29.8398 15.3672 33.2998H30.7072Z" fill="#FFCB09"/>
<path d="M19.6141 20.4098C15.6441 20.4098 12.4141 17.1798 12.4141 13.2098C12.4141 9.23977 15.6441 6.00977 19.6141 6.00977C23.5841 6.00977 26.8141 9.23977 26.8141 13.2098C26.8141 17.1798 23.5841 20.4098 19.6141 20.4098ZM19.6141 7.01977C16.1941 7.01977 13.4141 9.79977 13.4141 13.2198C13.4141 16.6398 16.1941 19.4198 19.6141 19.4198C23.0341 19.4198 25.8141 16.6398 25.8141 13.2198C25.8141 9.79977 23.0341 7.01977 19.6141 7.01977Z" fill="#121212"/>
<path d="M29.2672 33.7997H8.11719C7.83719 33.7997 7.61719 33.5797 7.61719 33.2997C7.61719 27.8597 12.9972 23.4297 19.6172 23.4297C21.6772 23.4297 23.7072 23.8597 25.4872 24.6897C25.7372 24.8097 25.8472 25.0997 25.7272 25.3497C25.6072 25.5997 25.3172 25.7097 25.0672 25.5897C23.4172 24.8297 21.5272 24.4197 19.6172 24.4197C13.7572 24.4197 8.95719 28.1297 8.62719 32.7897H29.2572C29.5372 32.7897 29.7572 33.0097 29.7572 33.2897C29.7572 33.5697 29.5372 33.7897 29.2572 33.7897L29.2672 33.7997Z" fill="#121212"/>
<path d="M29.2688 33.7995C28.0888 33.7995 26.9588 33.4295 26.0188 32.7395C25.4288 32.3095 24.9188 31.7595 24.5188 31.0995C23.9988 30.2495 23.7188 29.2595 23.7188 28.2395C23.7188 26.5295 24.4788 24.9495 25.8088 23.9095C26.7788 23.1195 28.0088 22.6895 29.2788 22.6895C30.5488 22.6895 31.7388 23.0995 32.7188 23.8895C34.0588 24.9495 34.8288 26.5295 34.8288 28.2495C34.8288 29.2695 34.5488 30.2495 34.0188 31.1095C33.7188 31.6195 33.3488 32.0595 32.9088 32.4295C31.9188 33.3095 30.6188 33.8095 29.2688 33.8095V33.7995ZM29.2688 23.6995C28.2388 23.6995 27.2288 24.0595 26.4288 24.6995C25.3388 25.5595 24.7188 26.8495 24.7188 28.2495C24.7188 29.0795 24.9487 29.8895 25.3787 30.5895C25.7087 31.1295 26.1188 31.5895 26.6088 31.9395C27.3888 32.5095 28.3088 32.8095 29.2688 32.8095C30.3888 32.8095 31.4188 32.4195 32.2588 31.6795C32.6188 31.3795 32.9188 31.0195 33.1588 30.6095C33.5988 29.8995 33.8188 29.0895 33.8188 28.2595C33.8188 26.8595 33.1888 25.5495 32.0888 24.6895C31.2888 24.0495 30.3088 23.7095 29.2688 23.7095V23.6995Z" fill="#121212"/>
<path d="M28.6403 29.8202C28.5103 29.8202 28.3803 29.7702 28.2903 29.6702L27.2203 28.6002C27.0203 28.4002 27.0203 28.0902 27.2203 27.8902C27.4203 27.6902 27.7303 27.6902 27.9303 27.8902L28.6603 28.6202L30.6203 26.8102C30.8203 26.6202 31.1403 26.6302 31.3303 26.8402C31.5203 27.0402 31.5003 27.3602 31.3003 27.5502L28.9903 29.6802C28.8903 29.7702 28.7703 29.8102 28.6503 29.8102L28.6403 29.8202Z" fill="#121212"/>
</g>
</g>
<defs>
<clipPath id="clip0_1170_7995">
<rect width="40" height="40" fill="white" transform="translate(0.5)"/>
</clipPath>
<clipPath id="clip1_1170_7995">
<rect width="40" height="40" fill="white" transform="translate(0.5)"/>
</clipPath>
</defs>
</svg>
