<svg width="32" height="32" viewBox="0 0 32 32" fill="none" xmlns="http://www.w3.org/2000/svg">
<g id="Layer_1" clip-path="url(#clip0_4447_3628)">
<path id="Vector" d="M24.04 20.64C24.04 24.08 21.256 26.864 17.816 26.864C14.376 26.864 11.592 24.08 11.592 20.64C11.592 17.2 14.376 14.416 17.816 14.416C21.256 14.416 24.04 17.2 24.04 20.64Z" fill="#FFCB09"/>
<g id="Group">
<path id="Vector_2" d="M15.832 27.768C9.43199 27.768 4.23199 22.568 4.23199 16.168C4.23199 9.76799 9.43199 4.56799 15.832 4.56799C22.232 4.56799 27.432 9.76799 27.432 16.168C27.432 22.568 22.232 27.768 15.832 27.768ZM15.832 5.36799C9.87999 5.36799 5.03199 10.216 5.03199 16.168C5.03199 22.12 9.87999 26.968 15.832 26.968C21.784 26.968 26.632 22.12 26.632 16.168C26.632 10.216 21.784 5.36799 15.832 5.36799Z" fill="#121212"/>
<path id="Vector_3" d="M15.832 17.888C15.608 17.888 15.432 17.712 15.432 17.488V17.216C15.432 16.136 16.12 15.536 16.712 15.136C17.256 14.768 17.616 14.4 17.616 13.76C17.616 12.776 16.816 11.976 15.832 11.976C14.848 11.976 14.048 12.776 14.048 13.76C14.048 13.984 13.872 14.16 13.648 14.16C13.424 14.16 13.248 13.984 13.248 13.76C13.248 12.336 14.408 11.176 15.832 11.176C17.256 11.176 18.416 12.336 18.416 13.76C18.416 14.824 17.744 15.408 17.16 15.8C16.6 16.176 16.232 16.56 16.232 17.216V17.488C16.232 17.712 16.056 17.888 15.832 17.888Z" fill="#121212"/>
<path id="Vector_4" d="M15.832 21.16C15.616 21.16 15.432 20.984 15.432 20.76V19.92C15.432 19.696 15.608 19.52 15.824 19.52C16.04 19.52 16.224 19.696 16.224 19.92V20.76C16.224 20.984 16.048 21.16 15.832 21.16Z" fill="#121212"/>
</g>
</g>
<defs>
<clipPath id="clip0_4447_3628">
<rect width="32" height="32" fill="white"/>
</clipPath>
</defs>
</svg>
