<svg width="16" height="17" viewBox="0 0 16 17" fill="none" xmlns="http://www.w3.org/2000/svg">
<g clip-path="url(#clip0_839_5773)">
<path d="M7.99977 15.5667C4.10644 15.5667 0.933105 12.4 0.933105 8.50002C0.933105 4.60002 4.10644 1.43335 7.99977 1.43335C11.8931 1.43335 15.0664 4.60002 15.0664 8.50002C15.0664 12.4 11.8931 15.5667 7.99977 15.5667ZM7.99977 2.23335C4.54644 2.23335 1.73311 5.04668 1.73311 8.50002C1.73311 11.9534 4.54644 14.7667 7.99977 14.7667C11.4531 14.7667 14.2664 11.9534 14.2664 8.50002C14.2664 5.04668 11.4531 2.23335 7.99977 2.23335Z" fill="#FFF1EB"/>
<path d="M7.05315 10.7867C6.94648 10.7867 6.84648 10.7467 6.77315 10.6667L4.88648 8.78C4.73315 8.62667 4.73315 8.37334 4.88648 8.21334C5.04648 8.06 5.29982 8.06 5.45315 8.21334L7.05982 9.82L10.5532 6.32667C10.7065 6.17334 10.9598 6.17334 11.1198 6.32667C11.2732 6.48 11.2732 6.73334 11.1198 6.89334L7.33982 10.6733C7.26648 10.7467 7.15982 10.7933 7.05982 10.7933L7.05315 10.7867Z" fill="#FFF1EB"/>
</g>
<defs>
<clipPath id="clip0_839_5773">
<rect width="16" height="16" fill="white" transform="translate(0 0.5)"/>
</clipPath>
</defs>
</svg>
