<svg xmlns="http://www.w3.org/2000/svg" width="250" height="142" viewBox="0 0 230 142" fill="none">

<g clip-path="url(#clip0_10800_176522)">
<path d="M41.3992 23.6543L0.00585938 51.3438L40.7736 112.288L82.1669 84.5983L41.3992 23.6543Z" fill="#F5F5F5"/>
<path d="M60.7738 81.7201L60.3072 84.6259L39.7266 81.6636L40.2003 78.7578L60.7738 81.7201Z" fill="#E0E0E0"/>
<path d="M50.4101 71.3496L53.3654 71.7738L50.092 92.0363L47.1367 91.6121L50.4101 71.3496Z" fill="#E0E0E0"/>
<path d="M31.4617 45.6001C31.49 45.6425 27.34 48.4705 22.2001 51.9136C17.0532 55.3566 12.8607 58.1068 12.8253 58.0644C12.7971 58.022 16.9401 55.194 22.087 51.7509C27.2339 48.3079 31.4264 45.5577 31.4547 45.6001H31.4617Z" fill="#E0E0E0"/>
<path d="M46.6836 41.7757C46.7119 41.8181 39.8187 46.4843 31.2782 52.1968C22.7377 57.9093 15.795 62.5048 15.7667 62.4553C15.7384 62.4129 22.6316 57.7467 31.1721 52.0342C39.7055 46.3217 46.6553 41.7333 46.6836 41.7757Z" fill="#E0E0E0"/>
<path d="M49.7305 46.3421C49.7587 46.3845 42.8655 51.0507 34.325 56.7632C25.7845 62.4757 18.8418 67.0712 18.8136 67.0217C18.7853 66.9793 25.6785 62.3131 34.219 56.6006C42.7524 50.8881 49.7022 46.2997 49.7305 46.3421Z" fill="#E0E0E0"/>
<path d="M52.7842 50.9026C52.8125 50.9451 45.9193 55.6112 37.3787 61.3237C28.8382 67.0363 21.8956 71.6317 21.8673 71.5822C21.839 71.5398 28.7322 66.8737 37.2727 61.1611C45.8061 55.4486 52.7559 50.8602 52.7842 50.9026Z" fill="#E0E0E0"/>
<path d="M55.832 55.4632C55.8603 55.5056 48.9671 60.1718 40.4266 65.8843C31.8861 71.5968 24.9434 76.1923 24.9151 76.1428C24.8868 76.1004 31.78 71.4342 40.3205 65.7217C48.854 60.0092 55.8037 55.4208 55.832 55.4632Z" fill="#E0E0E0"/>
<path d="M179.801 64.5005L145.042 87.752L179.28 138.935L214.039 115.684L179.801 64.5005Z" fill="#F5F5F5"/>
<path d="M196.079 113.268L195.683 115.714L178.404 113.218L178.8 110.779L196.079 113.268Z" fill="#E0E0E0"/>
<path d="M187.375 104.559L189.857 104.919L187.107 121.929L184.625 121.576L187.375 104.559Z" fill="#E0E0E0"/>
<path d="M171.462 82.9381C171.491 82.9805 168.012 85.3631 163.693 88.2547C159.373 91.1463 155.845 93.4511 155.817 93.4087C155.788 93.3663 159.267 90.9837 163.586 88.0921C167.906 85.2005 171.434 82.8957 171.462 82.9381Z" fill="#E0E0E0"/>
<path d="M184.244 79.7269C184.273 79.7693 178.482 83.6932 171.313 88.4937C164.145 93.2871 158.305 97.1402 158.276 97.0978C158.248 97.0554 164.038 93.1315 171.207 88.331C178.376 83.5376 184.216 79.6845 184.244 79.7269Z" fill="#E0E0E0"/>
<path d="M186.803 83.5589C186.831 83.6014 181.041 87.5252 173.872 92.3257C166.703 97.1191 160.863 100.972 160.835 100.93C160.807 100.887 166.597 96.9636 173.766 92.1631C180.935 87.3696 186.775 83.5165 186.803 83.5589Z" fill="#E0E0E0"/>
<path d="M189.37 87.3844C189.399 87.4268 183.608 91.3506 176.439 96.144C169.271 100.937 163.431 104.791 163.402 104.748C163.374 104.706 169.157 100.782 176.333 95.9814C183.502 91.188 189.342 87.3349 189.37 87.3773V87.3844Z" fill="#E0E0E0"/>
<path d="M191.929 91.2152C191.957 91.2576 186.167 95.1814 178.998 99.9819C171.829 104.775 165.989 108.628 165.961 108.586C165.933 108.544 171.716 104.62 178.892 99.8193C186.061 95.0259 191.901 91.1728 191.929 91.2152Z" fill="#E0E0E0"/>
<path d="M124.8 25.8977L86.8711 5.61133L57.0017 61.4579L94.931 81.7443L124.8 25.8977Z" fill="#F5F5F5"/>
<path d="M88.4451 64.2737L86.0342 65.1009L79.9258 48.2178L82.3366 47.3906L88.4451 64.2737Z" fill="#E0E0E0"/>
<path d="M92.1361 52.1621L93.0057 54.5871L76.2429 60.3279L75.3662 57.9029L92.1361 52.1621Z" fill="#E0E0E0"/>
<path d="M104.049 27.2488C104.02 27.3054 100.174 25.3046 95.4587 22.7806C90.7431 20.2566 86.9465 18.171 86.9748 18.1145C87.003 18.0579 90.8491 20.0587 95.5648 22.5827C100.28 25.1066 104.077 27.1923 104.049 27.2488Z" fill="#E0E0E0"/>
<path d="M113.148 37.2942C113.119 37.3508 106.749 33.9996 98.9301 29.8213C91.1036 25.6358 84.7902 22.1998 84.8185 22.1433C84.8467 22.0867 91.2168 25.4308 99.0361 29.6162C106.855 33.8016 113.176 37.2376 113.148 37.2942Z" fill="#E0E0E0"/>
<path d="M110.913 41.4719C110.885 41.5285 104.515 38.1773 96.6957 33.999C88.8693 29.8136 82.5558 26.3776 82.5841 26.321C82.6124 26.2645 88.9824 29.6085 96.8018 33.794C104.621 37.9794 110.942 41.4154 110.913 41.4719Z" fill="#E0E0E0"/>
<path d="M108.679 45.6575C108.651 45.714 102.281 42.3629 94.4613 38.1845C86.6349 33.9991 80.3214 30.5631 80.3497 30.5066C80.378 30.45 86.748 33.7941 94.5674 37.9795C102.387 42.1649 108.707 45.6009 108.679 45.6575Z" fill="#E0E0E0"/>
<path d="M106.446 49.8352C106.417 49.8918 100.047 46.5406 92.2279 42.3623C84.4015 38.1769 78.088 34.7409 78.1163 34.6843C78.1446 34.6277 84.5146 37.9718 92.334 42.1572C100.153 46.3427 106.474 49.7786 106.446 49.8352Z" fill="#E0E0E0"/>
<path d="M170.681 17.4635C169.6 17.711 169.07 18.9623 168.963 20.0723C168.857 21.1823 168.999 22.3489 168.539 23.3599C168.016 24.4981 166.765 25.3394 166.722 26.5908C166.694 27.3544 167.154 28.0755 167.125 28.8391C167.09 30.0905 165.81 31.0378 165.747 32.2963C165.697 33.2012 166.298 34.0638 166.157 34.9546C166.044 35.6474 165.506 36.1918 165.273 36.8635C164.82 38.1855 165.725 39.649 166.913 40.3914C168.235 41.2256 169.925 41.4377 171.417 40.964C172.901 40.4903 174.16 39.3309 174.754 37.8886C175.411 36.2979 175.27 34.5021 175.121 32.7841C174.676 27.4321 174.344 22.0731 174.132 16.707" fill="#263238"/>
<path d="M167.536 36.3484C167.536 36.3484 167.833 36.2353 168.031 35.7616C168.13 35.5283 168.18 35.2172 168.158 34.8637C168.144 34.5032 168.024 34.1143 167.89 33.6689C167.769 33.2306 167.607 32.7215 167.699 32.1559C167.791 31.5833 168.201 31.1096 168.575 30.643C168.766 30.4097 168.957 30.1622 169.07 29.8865C169.198 29.6108 169.226 29.2997 169.127 29.0027C168.936 28.4018 168.349 27.9564 168.073 27.2635C167.939 26.9171 167.939 26.5353 168.017 26.1889C168.088 25.8425 168.229 25.5243 168.37 25.2203C168.66 24.6194 168.978 24.0679 169.106 23.4811C169.367 22.3075 169.247 21.1975 169.417 20.2784C169.579 19.3593 169.968 18.6665 170.35 18.313C170.541 18.1292 170.718 18.0302 170.838 17.9665C170.965 17.91 171.029 17.8888 171.036 17.8958C171.05 17.9171 170.76 18.0019 170.407 18.3695C170.053 18.7301 169.692 19.4017 169.558 20.3067C169.487 20.7521 169.473 21.2541 169.452 21.7985C169.431 22.3358 169.417 22.9226 169.275 23.5306C169.148 24.1457 168.823 24.7183 168.54 25.3052C168.264 25.8849 168.01 26.5636 168.25 27.1999C168.484 27.8291 169.077 28.2745 169.304 28.9532C169.41 29.2926 169.374 29.6673 169.233 29.9643C169.099 30.2753 168.894 30.5228 168.703 30.7632C168.314 31.2298 167.932 31.6752 167.84 32.1913C167.748 32.7074 167.89 33.2023 168.01 33.6406C168.13 34.079 168.25 34.489 168.257 34.8708C168.264 35.2455 168.208 35.5637 168.095 35.804C167.982 36.0444 167.833 36.1929 167.72 36.2706C167.607 36.3484 167.536 36.3626 167.536 36.3626V36.3484Z" fill="#455A64"/>
<path d="M164.63 45.093L161.3 54.694L147.415 55.4364L145.096 60.5903L159.596 62.0538C162.488 63.2486 165.789 61.7852 166.843 58.837L170.71 48.0341L164.623 45.0859L164.63 45.093Z" fill="#B78876"/>
<path d="M193.354 135.595C193.354 135.595 183.18 103.272 182.961 102.225C182.763 101.278 186.652 78.0177 187.147 71.9941L173.396 72.5102V72.6092L167.549 72.9344L172.781 139.038H179.108L178.479 117.108C182.382 127.585 187.974 138.261 187.974 138.261L193.354 135.602V135.595Z" fill="#B78876"/>
<path d="M178.74 124.97C178.74 124.772 178.662 117.624 178.662 117.624C178.585 118.049 176.237 111.417 176.294 111.014C176.322 110.802 178.74 124.97 178.74 124.97Z" fill="#A36957"/>
<path d="M176.026 107.866C176.026 107.866 175.998 108.008 175.983 108.269C175.969 108.531 175.969 108.906 175.991 109.365C175.998 109.599 176.026 109.853 176.054 110.122C176.09 110.39 176.125 110.68 176.189 110.984C176.302 111.585 176.478 112.243 176.705 112.907C177.164 114.244 177.673 115.417 178.034 116.266C178.203 116.654 178.352 116.987 178.472 117.262C178.578 117.496 178.649 117.623 178.663 117.616C178.677 117.616 178.635 117.475 178.55 117.227C178.465 116.987 178.338 116.633 178.168 116.202C177.843 115.339 177.355 114.159 176.903 112.837C176.676 112.172 176.5 111.529 176.379 110.942C176.316 110.645 176.266 110.362 176.231 110.093C176.196 109.825 176.16 109.577 176.146 109.351C176.104 108.892 176.082 108.524 176.068 108.262C176.054 108.008 176.04 107.859 176.026 107.859V107.866Z" fill="#A36957"/>
<path d="M172.663 139.363V138.769L179.139 138.486L179.16 140.94L178.757 140.968C176.975 141.074 169.7 141.371 168.513 141.017C167.183 140.621 172.663 139.37 172.663 139.37V139.363Z" fill="#455A64"/>
<path d="M179.252 140.791C179.252 140.791 179.217 140.791 179.139 140.805C179.04 140.805 178.941 140.819 178.821 140.826C178.502 140.841 178.114 140.862 177.647 140.883C176.657 140.925 175.286 140.961 173.78 140.968C172.267 140.968 170.902 140.954 169.912 140.918C169.453 140.904 169.057 140.883 168.739 140.876L168.421 140.862C168.35 140.862 168.308 140.855 168.308 140.848C168.308 140.848 168.343 140.848 168.421 140.848C168.52 140.848 168.619 140.848 168.739 140.848C169.057 140.848 169.446 140.862 169.912 140.869C170.902 140.883 172.274 140.897 173.78 140.897C175.293 140.897 176.657 140.862 177.647 140.841C178.107 140.826 178.502 140.819 178.821 140.812C178.941 140.812 179.047 140.812 179.139 140.812C179.209 140.812 179.252 140.812 179.252 140.812V140.791Z" fill="#263238"/>
<path d="M170.563 140.994C170.563 140.994 170.521 140.719 170.344 140.436C170.174 140.153 169.927 140.012 169.941 139.991C169.941 139.969 170.224 140.09 170.408 140.394C170.598 140.698 170.584 140.994 170.563 140.994Z" fill="#263238"/>
<path d="M172.466 140.027C172.466 140.027 172.352 139.928 172.261 139.779C172.169 139.631 172.105 139.504 172.119 139.489C172.14 139.475 172.225 139.588 172.324 139.737C172.416 139.885 172.48 140.013 172.466 140.027Z" fill="#263238"/>
<path d="M172.988 139.745C172.988 139.745 172.874 139.696 172.761 139.597C172.648 139.498 172.571 139.406 172.585 139.385C172.599 139.371 172.698 139.434 172.811 139.533C172.924 139.632 173.002 139.724 172.988 139.745Z" fill="#263238"/>
<path d="M173.313 139.137C173.313 139.137 173.165 139.179 172.974 139.179C172.79 139.179 172.635 139.165 172.635 139.144C172.635 139.123 172.783 139.102 172.974 139.102C173.158 139.102 173.313 139.116 173.313 139.137Z" fill="#263238"/>
<path d="M173.426 138.705C173.426 138.705 173.27 138.797 173.051 138.818C172.832 138.839 172.662 138.79 172.662 138.769C172.662 138.747 172.839 138.762 173.044 138.74C173.249 138.726 173.418 138.684 173.426 138.705Z" fill="#263238"/>
<path d="M172.245 139.462C172.245 139.462 172.089 139.49 171.828 139.462C171.701 139.448 171.552 139.419 171.39 139.363C171.312 139.334 171.227 139.313 171.135 139.257C171.093 139.228 171.05 139.193 171.029 139.129C171.015 139.066 171.043 138.995 171.093 138.967C171.488 138.762 171.884 138.981 172.033 139.186C172.118 139.292 172.153 139.391 172.167 139.462C172.181 139.532 172.181 139.575 172.181 139.575C172.167 139.575 172.153 139.412 171.99 139.221C171.913 139.129 171.792 139.038 171.637 138.995C171.489 138.953 171.284 138.939 171.142 139.03C171.079 139.08 171.1 139.158 171.177 139.2C171.248 139.243 171.333 139.271 171.411 139.299C171.566 139.356 171.715 139.384 171.835 139.405C172.082 139.448 172.238 139.448 172.238 139.462H172.245Z" fill="#263238"/>
<path d="M172.139 139.484C172.139 139.484 172.069 139.385 172.09 139.194C172.097 139.102 172.132 138.996 172.203 138.89C172.274 138.798 172.373 138.671 172.549 138.678C172.648 138.692 172.691 138.798 172.677 138.869C172.67 138.94 172.634 139.003 172.606 139.053C172.542 139.159 172.479 139.244 172.408 139.307C172.281 139.434 172.175 139.484 172.175 139.477C172.168 139.47 172.26 139.399 172.373 139.272C172.429 139.208 172.493 139.123 172.542 139.024C172.599 138.94 172.634 138.777 172.535 138.763C172.429 138.756 172.323 138.855 172.26 138.94C172.196 139.031 172.161 139.123 172.146 139.208C172.118 139.378 172.154 139.484 172.146 139.491L172.139 139.484Z" fill="#263238"/>
<path d="M179.109 139.023C179.109 139.023 178.926 139.008 178.636 139.044C178.346 139.079 177.943 139.199 177.597 139.475C177.25 139.758 177.045 140.118 176.953 140.394C176.854 140.67 176.847 140.853 176.833 140.853C176.833 140.853 176.826 140.804 176.833 140.726C176.833 140.641 176.861 140.521 176.904 140.38C176.989 140.09 177.194 139.708 177.554 139.418C177.915 139.129 178.339 139.008 178.636 138.994C178.784 138.98 178.904 138.994 178.989 139.001C179.074 139.016 179.116 139.023 179.116 139.03L179.109 139.023Z" fill="#263238"/>
<path d="M176.006 140.274C176.006 140.274 175.589 140.359 175.066 140.366C174.543 140.366 174.119 140.31 174.126 140.288C174.126 140.267 174.55 140.288 175.066 140.288C175.582 140.288 176.006 140.253 176.006 140.274Z" fill="#263238"/>
<path d="M177.273 140.26C177.273 140.26 177.238 140.352 177.195 140.444C177.153 140.543 177.131 140.628 177.11 140.628C177.089 140.628 177.075 140.529 177.124 140.415C177.174 140.302 177.259 140.246 177.273 140.26Z" fill="#263238"/>
<path d="M177.746 139.667C177.746 139.667 177.718 139.752 177.654 139.815C177.59 139.886 177.52 139.928 177.506 139.914C177.492 139.9 177.534 139.829 177.598 139.766C177.661 139.695 177.732 139.653 177.746 139.667Z" fill="#263238"/>
<path d="M178.424 139.392C178.424 139.392 178.332 139.413 178.241 139.448C178.149 139.476 178.078 139.533 178.064 139.519C178.05 139.505 178.099 139.413 178.219 139.378C178.34 139.335 178.439 139.378 178.431 139.399L178.424 139.392Z" fill="#263238"/>
<path d="M178.913 139.264C178.913 139.264 178.884 139.321 178.828 139.342C178.771 139.363 178.722 139.363 178.715 139.342C178.708 139.321 178.743 139.285 178.8 139.264C178.856 139.243 178.906 139.243 178.913 139.264Z" fill="#263238"/>
<path d="M187.849 138.791L187.602 138.247L193.399 135.334L194.417 137.561L194.064 137.752C192.48 138.579 185.969 141.831 184.738 141.994C183.367 142.178 187.849 138.791 187.849 138.791Z" fill="#455A64"/>
<path d="M194.445 137.391C194.445 137.391 194.41 137.412 194.346 137.447C194.261 137.49 194.169 137.539 194.063 137.596C193.781 137.737 193.427 137.914 193.017 138.126C192.133 138.564 190.896 139.158 189.517 139.787C188.139 140.409 186.88 140.954 185.968 141.329C185.537 141.505 185.176 141.647 184.88 141.767L184.583 141.88C184.512 141.908 184.477 141.915 184.477 141.915C184.477 141.915 184.512 141.894 184.576 141.866L184.865 141.739C185.155 141.611 185.516 141.456 185.94 141.279C186.852 140.89 188.103 140.339 189.482 139.717C190.861 139.094 192.091 138.508 192.989 138.076C193.406 137.878 193.759 137.709 194.049 137.567L194.339 137.433C194.403 137.405 194.438 137.391 194.445 137.391Z" fill="#263238"/>
<path d="M186.605 141.145C186.605 141.145 186.449 140.912 186.173 140.728C185.898 140.537 185.622 140.509 185.622 140.488C185.622 140.466 185.919 140.466 186.216 140.664C186.513 140.862 186.619 141.145 186.605 141.145Z" fill="#263238"/>
<path d="M187.94 139.477C187.94 139.477 187.799 139.435 187.65 139.336C187.502 139.237 187.396 139.145 187.403 139.131C187.417 139.11 187.544 139.173 187.692 139.272C187.841 139.371 187.947 139.463 187.94 139.477Z" fill="#263238"/>
<path d="M188.301 139.011C188.301 139.011 188.174 139.011 188.033 138.968C187.892 138.926 187.778 138.869 187.785 138.848C187.785 138.827 187.913 138.848 188.054 138.891C188.195 138.933 188.309 138.99 188.301 139.011Z" fill="#263238"/>
<path d="M188.351 138.317C188.351 138.317 188.23 138.416 188.061 138.494C187.891 138.572 187.75 138.621 187.736 138.6C187.729 138.579 187.856 138.501 188.025 138.423C188.195 138.346 188.336 138.296 188.351 138.317Z" fill="#263238"/>
<path d="M188.273 137.88C188.273 137.88 188.167 138.028 187.976 138.134C187.785 138.24 187.609 138.268 187.602 138.247C187.602 138.226 187.757 138.17 187.941 138.063C188.125 137.965 188.259 137.858 188.273 137.88Z" fill="#263238"/>
<path d="M187.509 139.053C187.509 139.053 187.374 139.145 187.127 139.223C187.007 139.258 186.851 139.293 186.682 139.315C186.597 139.322 186.512 139.336 186.406 139.322C186.356 139.315 186.3 139.3 186.257 139.244C186.215 139.194 186.215 139.117 186.243 139.067C186.519 138.714 186.971 138.756 187.191 138.883C187.311 138.947 187.381 139.025 187.431 139.081C187.473 139.138 187.487 139.173 187.487 139.18C187.473 139.194 187.396 139.046 187.169 138.933C187.056 138.883 186.915 138.848 186.752 138.869C186.604 138.89 186.406 138.968 186.314 139.103C186.272 139.173 186.328 139.237 186.413 139.244C186.491 139.258 186.583 139.244 186.667 139.244C186.83 139.23 186.979 139.201 187.099 139.166C187.346 139.103 187.487 139.039 187.495 139.053H187.509Z" fill="#263238"/>
<path d="M187.419 139.117C187.419 139.117 187.313 139.054 187.256 138.877C187.228 138.792 187.214 138.679 187.235 138.552C187.263 138.439 187.298 138.283 187.461 138.22C187.553 138.191 187.772 138.375 187.786 138.446C187.807 138.517 187.68 138.481 187.673 138.538C187.659 138.658 187.631 138.764 187.595 138.849C187.532 139.018 187.454 139.103 187.447 139.096C187.433 139.096 187.489 138.997 187.539 138.828C187.56 138.743 187.588 138.644 187.595 138.531C187.609 138.425 187.581 138.269 187.482 138.297C187.383 138.333 187.327 138.467 187.306 138.573C187.284 138.679 187.291 138.785 187.306 138.87C187.348 139.04 187.426 139.117 187.412 139.125L187.419 139.117Z" fill="#263238"/>
<path d="M193.596 135.842C193.596 135.842 193.42 135.906 193.172 136.054C192.925 136.203 192.607 136.478 192.402 136.874C192.197 137.27 192.161 137.687 192.19 137.977C192.211 138.267 192.281 138.444 192.267 138.444C192.267 138.444 192.239 138.401 192.211 138.323C192.182 138.246 192.154 138.125 192.133 137.977C192.091 137.68 192.119 137.249 192.331 136.832C192.543 136.415 192.882 136.139 193.144 135.998C193.278 135.927 193.391 135.885 193.469 135.856C193.547 135.835 193.596 135.828 193.596 135.828V135.842Z" fill="#263238"/>
<path d="M191.278 138.253C191.278 138.253 190.932 138.501 190.458 138.72C189.985 138.939 189.575 139.052 189.567 139.031C189.56 139.01 189.956 138.861 190.43 138.649C190.903 138.437 191.271 138.232 191.285 138.253H191.278Z" fill="#263238"/>
<path d="M192.423 137.724C192.423 137.724 192.423 137.823 192.423 137.922C192.423 138.028 192.437 138.113 192.423 138.12C192.402 138.127 192.353 138.042 192.353 137.922C192.353 137.802 192.402 137.71 192.423 137.724Z" fill="#263238"/>
<path d="M192.614 136.989C192.614 136.989 192.621 137.074 192.593 137.166C192.557 137.257 192.515 137.321 192.494 137.314C192.472 137.307 192.487 137.229 192.515 137.137C192.55 137.045 192.593 136.982 192.614 136.989Z" fill="#263238"/>
<path d="M193.123 136.457C193.123 136.457 193.053 136.514 192.975 136.585C192.904 136.655 192.862 136.726 192.841 136.719C192.819 136.719 192.834 136.606 192.925 136.528C193.017 136.443 193.123 136.436 193.123 136.457Z" fill="#263238"/>
<path d="M193.512 136.141C193.512 136.141 193.512 136.205 193.469 136.24C193.427 136.282 193.385 136.304 193.371 136.29C193.356 136.275 193.371 136.226 193.413 136.191C193.455 136.148 193.498 136.127 193.512 136.141Z" fill="#263238"/>
<path d="M186.25 61.0555L185.168 47.8842L190.711 47.9832C190.711 47.9832 190.966 46.0389 190.153 41.7828C189.651 39.174 187.911 37.5691 185.96 36.6147V36.5793L185.79 36.5369C183.309 35.3775 180.714 35.2148 180.714 35.2148L173.906 35.2926C173.906 35.2926 168.709 34.6422 165.832 38.3468C164.722 39.775 161.293 49.5456 161.293 49.5456L169.459 53.4765L168.681 48.0609C168.681 48.0609 168.837 51.9918 169.339 53.2362C169.621 53.929 170.427 56.0853 170.427 56.0853L170.321 62.5826L186.243 61.0555H186.25Z" fill="#FFCB09"/>
<path d="M182.496 45.9753L181.485 50.2739H191.016L190.393 43.0625L182.496 45.9753Z" fill="#FFCB09"/>
<path d="M191.016 50.2742C191.016 50.2742 190.535 50.1964 189.758 50.1469C188.98 50.1045 187.898 50.0621 186.703 50.0691C185.508 50.0691 184.427 50.1257 183.649 50.1893C182.871 50.253 182.391 50.3166 182.391 50.3449C182.391 50.3731 182.878 50.359 183.656 50.3449C184.434 50.3237 185.516 50.2954 186.703 50.2883C187.891 50.2883 188.973 50.2954 189.75 50.3024C190.528 50.3095 191.016 50.3024 191.016 50.2812V50.2742Z" fill="#263238"/>
<path d="M182.086 43.0273C182.086 43.0273 182.044 43.4445 182.051 44.1232C182.058 44.8019 182.079 45.7281 182.121 46.7603C182.164 47.7925 182.206 48.7187 182.256 49.3974C182.298 50.069 182.34 50.4861 182.369 50.4861C182.397 50.4861 182.411 50.069 182.404 49.3903C182.397 48.7116 182.376 47.7854 182.333 46.7532C182.291 45.721 182.249 44.7948 182.199 44.1161C182.157 43.4445 182.114 43.0273 182.086 43.0273Z" fill="#263238"/>
<g opacity="0.3">
<path d="M173.418 46.7532C173.418 46.7532 175.539 62.4555 181.492 62.0384C181.492 62.0384 184.171 62.003 185.034 60.2214V59.5215L173.418 46.7461V46.7532Z" fill="black"/>
</g>
<g opacity="0.3">
<path d="M182.086 43.9531L180.948 51.6523L181.684 53.0027L182.9 50.3585L182.383 50.3444L182.086 43.9531Z" fill="black"/>
</g>
<path d="M170.435 56.0854C170.435 56.0854 170.364 55.9581 170.272 55.7177C170.18 55.4773 170.06 55.1238 169.912 54.6855C169.629 53.8088 169.276 52.5857 169 51.2C168.724 49.8143 168.59 48.5488 168.547 47.6226C168.526 47.1631 168.519 46.7884 168.526 46.5338C168.526 46.2793 168.54 46.1309 168.554 46.1309C168.583 46.1309 168.604 46.6965 168.682 47.6155C168.759 48.5276 168.915 49.786 169.184 51.1647C169.459 52.5362 169.785 53.7664 170.039 54.6502C170.159 55.0602 170.258 55.4066 170.336 55.6965C170.407 55.944 170.435 56.0854 170.428 56.0854H170.435Z" fill="#263238"/>
<path d="M172.845 60.5951C172.796 60.6092 172.647 60.2699 172.513 59.8387C172.378 59.4075 172.315 59.04 172.364 59.0258C172.414 59.0117 172.562 59.351 172.697 59.7822C172.831 60.2134 172.895 60.5809 172.845 60.5951Z" fill="#263238"/>
<path d="M173.666 60.532C173.617 60.5461 173.454 60.0372 173.447 59.3869C173.433 58.7365 173.582 58.2205 173.631 58.2347C173.688 58.2417 173.631 58.7577 173.638 59.3869C173.645 60.016 173.716 60.5249 173.666 60.5391V60.532Z" fill="#263238"/>
<path d="M169.636 53.6605C169.615 53.71 167.713 52.805 165.394 51.6455C163.075 50.4861 161.208 49.5104 161.237 49.4609C161.258 49.4114 163.16 50.3164 165.486 51.4759C167.805 52.6353 169.671 53.611 169.643 53.6605H169.636Z" fill="#263238"/>
<path d="M172.985 36.5673C173.028 34.7008 173.035 32.7354 173.035 32.7354C173.035 32.7354 170.638 32.2759 170.221 29.1227C169.825 26.1179 170.935 19.0692 170.935 19.0692C174.435 17.7471 178.062 18.9419 180.458 21.777L179.865 36.9279C179.794 38.6883 178.231 40.0316 176.344 39.9397C174.442 39.8478 172.936 38.3348 172.978 36.5602L172.985 36.5673Z" fill="#B78876"/>
<path d="M170.758 24.7039C170.744 24.916 170.913 25.0998 171.132 25.121C171.351 25.1351 171.542 24.9796 171.556 24.7676C171.571 24.5555 171.401 24.3717 171.182 24.3505C170.963 24.3364 170.772 24.4919 170.758 24.7039Z" fill="#263238"/>
<path d="M170.609 24.1803C170.659 24.2368 170.97 24.0177 171.401 24.0318C171.832 24.0318 172.143 24.2722 172.193 24.2156C172.214 24.1944 172.172 24.0954 172.03 23.9894C171.896 23.8834 171.67 23.7844 171.394 23.7773C171.125 23.7773 170.892 23.8622 170.765 23.9611C170.631 24.0601 170.581 24.152 170.602 24.1803H170.609Z" fill="#263238"/>
<path d="M175.149 24.9793C175.135 25.1914 175.305 25.3752 175.524 25.3964C175.743 25.4105 175.934 25.255 175.948 25.0429C175.962 24.8309 175.793 24.6471 175.573 24.6259C175.354 24.6118 175.163 24.7673 175.149 24.9793Z" fill="#263238"/>
<path d="M175.12 24.4498C175.17 24.5063 175.481 24.2872 175.912 24.3014C176.343 24.3014 176.654 24.5417 176.704 24.4851C176.725 24.4639 176.682 24.365 176.541 24.2589C176.407 24.1529 176.181 24.0539 175.905 24.0469C175.636 24.0469 175.403 24.1317 175.276 24.2307C175.141 24.3296 175.092 24.4215 175.113 24.4498H175.12Z" fill="#263238"/>
<path d="M173.465 27.623C173.465 27.623 173.197 27.5452 172.766 27.4746C172.652 27.4604 172.554 27.4321 172.532 27.3615C172.511 27.2837 172.561 27.1635 172.617 27.0363C172.73 26.7747 172.843 26.492 172.963 26.2022C173.451 25.0146 173.805 24.0391 173.755 24.0179C173.706 23.9967 173.275 24.9439 172.794 26.1315C172.674 26.4213 172.568 26.7041 172.462 26.9727C172.419 27.0999 172.341 27.2342 172.391 27.4039C172.419 27.4887 172.497 27.5523 172.568 27.5735C172.638 27.5947 172.702 27.6018 172.751 27.6018C173.19 27.6371 173.458 27.6442 173.465 27.623Z" fill="#263238"/>
<path d="M173.035 32.7354C173.035 32.7354 175.142 32.9263 177.262 31.7246C177.262 31.7246 176.188 33.8523 173.056 33.4777L173.035 32.7354Z" fill="#A36957"/>
<path d="M176.506 23.2063C176.414 23.3406 176.089 23.284 175.722 23.2133C175.354 23.1426 175.029 23.072 174.993 22.9164C174.958 22.7609 175.34 22.5559 175.828 22.6478C176.322 22.7397 176.598 23.079 176.506 23.2063Z" fill="#263238"/>
<path d="M172.201 22.5693C172.166 22.7249 171.812 22.7814 171.409 22.8026C170.999 22.8167 170.646 22.7955 170.596 22.64C170.547 22.4916 170.893 22.2512 171.381 22.23C171.869 22.2088 172.236 22.4138 172.201 22.5693Z" fill="#263238"/>
<path d="M173.474 28.6556C173.382 28.6273 173.283 28.6839 173.234 28.7616C173.177 28.8606 173.205 28.9949 173.29 29.0656C173.375 29.1363 173.516 29.1433 173.601 29.0656C173.686 28.9949 173.721 28.8606 173.665 28.7616C173.615 28.6626 173.488 28.6061 173.375 28.6414" fill="#A36957"/>
<path d="M173.573 28.6989C173.573 28.6989 173.502 28.5717 173.312 28.6141C173.227 28.6353 173.107 28.7131 173.078 28.8474C173.043 28.9746 173.078 29.1372 173.206 29.2362C173.347 29.3351 173.51 29.3139 173.623 29.2362C173.743 29.1584 173.771 29.017 173.757 28.9251C173.722 28.7272 173.573 28.6989 173.573 28.7272C173.559 28.7484 173.623 28.8191 173.609 28.9322C173.609 28.9888 173.573 29.0383 173.524 29.0665C173.467 29.0948 173.382 29.0948 173.34 29.0595C173.29 29.0241 173.262 28.9464 173.276 28.8827C173.283 28.8191 173.326 28.7767 173.375 28.7484C173.474 28.6919 173.566 28.7202 173.58 28.6919L173.573 28.6989Z" fill="#263238"/>
<path d="M179.016 25.4817C178.641 26.3442 177.729 27.0159 177.856 27.9491C177.941 28.5501 178.323 29.1157 178.252 29.7166C178.16 30.4731 177.369 30.9963 177.263 31.7527C177.128 32.6789 178.026 33.4 178.387 34.2626C178.91 35.521 178.238 36.935 178.224 38.2995C178.203 40.3852 179.977 42.3365 182.056 42.5132C182.897 42.5839 183.845 42.3294 184.283 41.6083C184.644 41.0144 184.573 40.2508 184.785 39.5933C185.11 38.6035 186.051 37.8824 186.248 36.8643C186.609 35.0049 184.368 33.4707 184.509 31.5831C184.573 30.7771 185.068 30.0701 185.28 29.2924C185.556 28.2673 185.301 27.1149 184.622 26.3089C184.071 25.6514 183.265 25.213 182.791 24.499C182.254 23.6789 182.24 22.6466 182.035 21.6922C181.54 19.3662 179.794 17.3442 177.56 16.517C175.325 15.6969 172.681 16.0999 170.801 17.5492C170.801 17.5492 170.263 19.9813 172.759 20.3843C175.255 20.7872 176.414 20.3206 176.69 21.3246C176.69 21.3246 176.407 22.4911 177.439 23.6082C178.472 24.7252 179.44 24.4919 179.009 25.4888L179.016 25.4817Z" fill="#263238"/>
<path d="M182.996 42.3432C182.996 42.3432 182.918 42.3432 182.77 42.322C182.621 42.3008 182.402 42.2513 182.134 42.1523C181.603 41.9544 180.847 41.5302 180.203 40.7242C179.885 40.3212 179.581 39.8334 179.383 39.2607C179.178 38.6881 179.058 38.0447 179.051 37.366C179.037 36.6873 179.129 35.9732 179.32 35.2591C179.412 34.8986 179.532 34.5451 179.673 34.1916C179.815 33.8381 179.984 33.4916 180.076 33.1311C180.182 32.7705 180.168 32.4029 180.076 32.0494C179.977 31.6959 179.815 31.3636 179.659 31.0384C179.496 30.7132 179.334 30.3879 179.228 30.0415C179.122 29.6951 179.079 29.3274 179.15 28.981C179.298 28.2882 179.716 27.7721 179.97 27.2418C180.232 26.7186 180.317 26.1672 180.302 25.6723C180.26 24.6683 179.829 23.926 179.482 23.4947C179.115 23.0635 178.839 22.9009 178.853 22.8867C178.853 22.8867 179.143 23.0281 179.539 23.4452C179.914 23.8694 180.373 24.6189 180.444 25.6652C180.465 26.1813 180.387 26.7611 180.119 27.3125C179.864 27.8569 179.454 28.3801 179.334 29.0164C179.207 29.6597 179.511 30.3172 179.836 30.9606C179.998 31.2858 180.168 31.6252 180.274 32.007C180.38 32.3817 180.394 32.8059 180.274 33.1876C180.168 33.5765 179.998 33.9229 179.864 34.2693C179.73 34.6158 179.61 34.9622 179.518 35.3157C179.334 36.0156 179.235 36.7085 179.249 37.3731C179.249 38.7022 179.709 39.8687 180.338 40.6464C180.953 41.4453 181.674 41.8766 182.19 42.0887C182.713 42.3008 183.031 42.3291 183.024 42.3503L182.996 42.3432Z" fill="#455A64"/>
<path d="M182.63 23.7292C182.63 23.7292 182.439 23.7786 182.078 23.814C181.725 23.8423 181.201 23.8847 180.558 23.7716C179.936 23.6585 179.144 23.3474 178.642 22.605C178.395 22.2303 178.296 21.7849 178.14 21.3678C177.992 20.9436 177.702 20.583 177.299 20.3285C176.493 19.8195 175.545 19.7558 174.711 19.6498C173.877 19.5579 173.092 19.3811 172.562 18.9782C172.025 18.5964 171.749 18.1015 171.678 17.748C171.636 17.5712 171.643 17.4298 171.65 17.3309C171.664 17.2389 171.671 17.1895 171.678 17.1895C171.699 17.1895 171.65 17.3945 171.749 17.7268C171.841 18.0591 172.116 18.5186 172.633 18.865C173.142 19.2256 173.891 19.3882 174.725 19.473C175.545 19.565 176.535 19.6144 177.398 20.1659C177.822 20.4346 178.154 20.8517 178.31 21.2971C178.472 21.7354 178.564 22.1667 178.783 22.5061C179.236 23.1918 179.978 23.51 180.579 23.6302C181.194 23.7574 181.717 23.7362 182.071 23.7292C182.424 23.715 182.622 23.7079 182.622 23.7221L182.63 23.7292Z" fill="#455A64"/>
<path d="M181.717 20.7311C181.717 20.7311 181.568 20.7877 181.285 20.7948C181.003 20.8018 180.585 20.7523 180.119 20.5332C179.886 20.4271 179.652 20.2645 179.433 20.0595C179.214 19.8474 179.03 19.5787 178.86 19.2959C178.528 18.7374 178.21 18.0446 177.517 17.7547C176.838 17.4648 176.096 17.5284 175.453 17.5709C174.802 17.6345 174.187 17.6557 173.685 17.5567C173.183 17.4719 172.809 17.2598 172.596 17.0689C172.49 16.977 172.42 16.8921 172.377 16.8285C172.335 16.7649 172.314 16.7295 172.321 16.7295C172.335 16.7154 172.427 16.8497 172.639 17.0123C172.851 17.182 173.219 17.3588 173.699 17.4224C174.187 17.5002 174.767 17.4719 175.424 17.3941C176.075 17.3446 176.838 17.2598 177.581 17.5779C177.948 17.7335 178.245 18.0092 178.464 18.3061C178.684 18.6031 178.839 18.9212 179.002 19.197C179.164 19.4798 179.334 19.7343 179.532 19.9393C179.73 20.1443 179.949 20.2928 180.168 20.4059C180.6 20.6322 181.003 20.7029 181.271 20.717C181.547 20.7311 181.703 20.717 181.703 20.7311H181.717Z" fill="#455A64"/>
<path d="M184.1 41.5524C184.1 41.5524 184.199 41.3049 184.333 40.8525C184.467 40.4 184.602 39.7213 184.58 38.8729C184.552 38.0315 184.347 37.0205 183.796 36.059C183.527 35.5783 183.117 35.147 182.785 34.6168C182.622 34.3552 182.474 34.0582 182.41 33.7259C182.346 33.3937 182.389 33.0472 182.495 32.7291C182.7 32.0928 183.074 31.5555 183.152 30.9687C183.251 30.3819 182.954 29.8445 182.671 29.3709C182.53 29.1305 182.389 28.8901 182.276 28.6356C182.162 28.3881 182.092 28.1195 182.063 27.865C182.007 27.3488 182.063 26.8822 182.106 26.458C182.212 25.6167 182.134 24.9239 181.929 24.4997C181.731 24.0684 181.477 23.9411 181.491 23.9199C181.491 23.9199 181.505 23.9199 181.533 23.9411C181.561 23.9553 181.604 23.9835 181.653 24.026C181.752 24.1037 181.887 24.2451 181.993 24.4643C182.226 24.8956 182.325 25.6167 182.233 26.4722C182.205 26.8964 182.155 27.363 182.212 27.8508C182.261 28.3386 182.516 28.8053 182.813 29.286C182.954 29.5264 183.11 29.7809 183.216 30.0708C183.322 30.3536 183.371 30.6788 183.329 31.004C183.237 31.6474 182.862 32.1918 182.671 32.7927C182.573 33.0897 182.537 33.4007 182.594 33.6977C182.65 33.9946 182.778 34.2703 182.94 34.5249C183.258 35.0339 183.668 35.4722 183.944 35.9813C184.51 36.9852 184.701 38.0245 184.715 38.8799C184.715 39.7425 184.566 40.4283 184.404 40.8807C184.319 41.107 184.248 41.2767 184.192 41.3898C184.135 41.5029 184.107 41.5595 184.1 41.5595V41.5524Z" fill="#455A64"/>
<path d="M169.075 110.283C169.075 110.283 166.594 86.7331 166.445 78.0299C166.297 69.3268 170.355 60.7439 170.355 60.7439L186.248 60.0723C186.248 60.0723 189.387 68.9026 189.444 72.6144C189.55 79.8186 187.528 86.9381 187.761 92.6577L188.292 110.29" fill="#263238"/>
<path d="M188.83 81.332C188.83 81.332 188.745 81.4027 188.568 81.53L188.427 81.629C188.378 81.6714 188.328 81.7209 188.272 81.7774C188.158 81.8835 188.031 82.0037 187.918 82.1734C187.402 82.8026 187.027 83.9267 186.674 85.3266C186.476 86.0194 186.278 86.8042 185.868 87.5677C185.755 87.7515 185.663 87.9495 185.514 88.1263C185.444 88.2182 185.38 88.3101 185.309 88.3949L185.062 88.6424C184.729 88.9676 184.312 89.215 183.867 89.4059C182.976 89.7948 181.972 89.9786 181.053 90.4381C180.127 90.8906 179.434 91.7602 179.01 92.7641C178.564 93.761 178.289 94.8144 177.914 95.7901C177.546 96.7657 177.052 97.706 176.253 98.307C175.468 98.9291 174.492 99.0705 173.651 99.12C172.795 99.1695 172.004 99.1483 171.289 99.2544C170.582 99.3533 169.953 99.5796 169.508 99.926C169.062 100.272 168.801 100.718 168.681 101.093C168.553 101.474 168.575 101.792 168.617 101.998C168.659 102.203 168.716 102.302 168.702 102.309C168.702 102.309 168.631 102.217 168.575 102.005C168.518 101.8 168.483 101.467 168.603 101.071C168.716 100.675 168.978 100.216 169.437 99.8482C169.897 99.4735 170.54 99.2332 171.261 99.1271C171.982 99.0069 172.788 99.0281 173.63 98.9716C174.464 98.9079 175.397 98.7665 176.132 98.1727C176.882 97.6 177.363 96.695 177.723 95.7335C178.091 94.7649 178.359 93.7115 178.819 92.6934C179.25 91.6754 179.978 90.7421 180.947 90.2826C181.901 89.8089 182.905 89.6322 183.775 89.2504C184.206 89.0666 184.609 88.8332 184.927 88.5222L185.161 88.2889C185.231 88.2111 185.295 88.1192 185.359 88.0343C185.5 87.8717 185.592 87.6808 185.705 87.497C186.108 86.7618 186.313 85.9841 186.518 85.2983C186.893 83.9055 187.289 82.7672 187.833 82.138C187.953 81.9683 188.088 81.8481 188.208 81.7492C188.264 81.6997 188.321 81.6431 188.371 81.6078L188.526 81.5088C188.71 81.3957 188.802 81.3391 188.809 81.3462L188.83 81.332Z" fill="#FAFAFA"/>
<path d="M188.928 70.4302C188.928 70.4302 188.942 70.5363 188.949 70.7484C188.949 70.9534 188.928 71.2645 188.836 71.6463C188.652 72.4169 188.094 73.4703 187.04 74.4248C186.524 74.9055 185.895 75.3651 185.181 75.7822C184.467 76.2064 183.682 76.6094 182.876 77.0619C182.077 77.5214 181.25 78.0304 180.522 78.7162C179.787 79.3949 179.235 80.2787 178.74 81.2261C178.238 82.1664 177.793 83.1208 177.192 83.9551C176.895 84.3722 176.556 84.7469 176.181 85.0721C175.806 85.3903 175.396 85.6518 174.979 85.871C174.145 86.3023 173.296 86.5709 172.512 86.8184C171.72 87.0658 170.985 87.2779 170.341 87.5466C169.698 87.8153 169.139 88.1122 168.687 88.4303C168.234 88.7485 167.895 89.0878 167.648 89.3848C167.153 89.9928 167.054 90.4311 167.025 90.417C167.025 90.417 167.054 90.3109 167.131 90.1201C167.216 89.9292 167.351 89.6534 167.591 89.3353C167.831 89.0171 168.171 88.6707 168.623 88.3384C169.076 88.0061 169.641 87.6951 170.285 87.4123C170.935 87.1295 171.67 86.9032 172.455 86.6558C173.24 86.4013 174.074 86.1326 174.887 85.7013C175.29 85.4892 175.686 85.2347 176.047 84.9166C176.407 84.6055 176.732 84.2379 177.022 83.8278C177.609 83.0148 178.047 82.0674 178.549 81.12C179.044 80.1726 179.617 79.2606 180.373 78.5678C181.123 77.8678 181.964 77.3517 182.77 76.8922C183.583 76.4397 184.368 76.0438 185.082 75.6267C185.796 75.2166 186.418 74.7712 186.934 74.3046C187.981 73.3784 188.546 72.3603 188.751 71.6109C188.949 70.8544 188.886 70.409 188.914 70.4161L188.928 70.4302Z" fill="#FAFAFA"/>
<path d="M166.524 79.2748C166.524 79.2748 166.51 79.2536 166.489 79.2041C166.474 79.1546 166.439 79.084 166.418 78.985C166.375 78.787 166.347 78.4759 166.453 78.1012C166.658 77.3518 167.471 76.4186 168.786 75.9449C169.444 75.7186 170.186 75.5843 170.957 75.3793C171.72 75.1743 172.555 74.8844 173.177 74.2481C173.488 73.93 173.749 73.5552 173.962 73.1452C174.174 72.7281 174.35 72.2827 174.513 71.8231C174.845 70.904 175.121 69.9001 175.68 68.9951C176.238 68.076 177.143 67.4397 178.083 67.1216C179.024 66.7752 179.964 66.6267 180.848 66.4217C181.731 66.2308 182.552 65.9833 183.251 65.6016C183.937 65.2127 184.489 64.6895 184.878 64.1381C185.676 63.0352 185.881 61.8969 185.91 61.1475C185.924 60.3839 185.804 59.9739 185.832 59.9668C185.832 59.9668 185.98 60.3769 185.988 61.1475C185.988 61.911 185.79 63.0705 184.991 64.2158C184.602 64.7885 184.043 65.3258 183.329 65.7429C182.615 66.1389 181.774 66.3934 180.89 66.5913C180.006 66.7964 179.066 66.959 178.154 67.2913C177.235 67.6094 176.379 68.2104 175.842 69.087C175.298 69.9637 175.022 70.9535 174.69 71.8797C174.52 72.3463 174.343 72.7988 174.124 73.223C173.898 73.6472 173.622 74.036 173.297 74.3683C172.639 75.0399 171.763 75.3298 170.992 75.5278C170.207 75.7257 169.472 75.853 168.822 76.0651C167.542 76.5034 166.729 77.3942 166.517 78.1154C166.397 78.4759 166.418 78.7729 166.446 78.9708C166.489 79.1617 166.524 79.2678 166.51 79.2678L166.524 79.2748Z" fill="#FAFAFA"/>
<path d="M187.565 99.1907C187.565 99.1907 187.579 99.2684 187.593 99.424C187.6 99.5795 187.593 99.8058 187.522 100.089C187.395 100.654 186.957 101.432 186.13 102.082C185.727 102.407 185.232 102.712 184.666 102.952C184.101 103.192 183.478 103.383 182.828 103.588C182.178 103.793 181.499 104.005 180.834 104.316C180.17 104.62 179.547 105.073 179.017 105.638C178.48 106.204 178.013 106.819 177.497 107.364C176.981 107.908 176.401 108.36 175.8 108.693C174.584 109.364 173.326 109.591 172.294 109.605C171.247 109.619 170.42 109.4 169.876 109.202C169.6 109.103 169.395 109.011 169.261 108.94C169.126 108.869 169.056 108.834 169.056 108.827C169.056 108.827 169.133 108.848 169.275 108.905C169.416 108.961 169.621 109.046 169.897 109.131C170.441 109.301 171.261 109.499 172.287 109.47C173.305 109.442 174.535 109.202 175.708 108.537C176.295 108.205 176.854 107.767 177.356 107.229C177.858 106.692 178.324 106.077 178.869 105.504C179.406 104.924 180.057 104.451 180.742 104.14C181.421 103.821 182.114 103.609 182.764 103.411C183.415 103.213 184.037 103.03 184.588 102.796C185.14 102.57 185.628 102.28 186.031 101.969C186.844 101.347 187.289 100.612 187.438 100.06C187.586 99.5088 187.522 99.1836 187.551 99.1836L187.565 99.1907Z" fill="#FAFAFA"/>
<path d="M185.748 50.2966L182.673 50.3673C182.468 51.3996 181.98 52.1136 181.98 52.1136C179.414 47.6525 177.42 41.6784 176.925 39.2746C176.996 39.0342 177.081 38.7726 177.187 38.4757C177.307 38.1363 177.201 37.4859 177.144 37.1253C177.059 36.588 176.911 35.8739 176.861 35.5346C176.727 34.5165 176.565 34.361 176.204 34.4741C175.723 34.6296 176.402 37.3233 176.006 37.3798C175.794 37.4081 175.532 36.489 175.462 35.7325C175.384 34.9761 175.045 32.643 174.797 32.4874C174.429 32.2612 174.111 32.6218 174.203 33.3712C174.295 34.1347 174.415 36.4113 174.012 36.4395C173.616 36.4678 173.284 32.6076 173.284 32.6076C173.284 32.6076 173.348 31.7663 172.881 31.7875C172.047 31.8229 172.697 35.8951 172.768 36.284C172.817 36.5527 172.386 36.6021 172.344 36.3123C172.301 36.0153 172.103 32.4521 171.255 32.4804C170.605 32.5016 171.764 35.8386 171.396 36.6092C171.029 37.3798 170.774 33.9863 170.152 34.0287C169.919 34.0428 169.749 34.0923 170.173 36.0153C170.4 37.0475 171.078 38.9494 171.665 40.5189C172.655 45.8496 176.989 62.9024 183.79 59.7774C187.594 58.0312 189.142 50.2896 189.142 50.2896H185.741L185.748 50.2966Z" fill="#B78876"/>
<path d="M172.641 36.5458C172.641 36.5458 172.669 36.5458 172.726 36.5316C172.775 36.5175 172.881 36.4539 172.867 36.3195C172.86 36.0933 172.825 35.7539 172.768 35.3227C172.726 34.8914 172.598 34.3682 172.598 33.7531C172.598 33.4421 172.598 33.1098 172.62 32.7634C172.634 32.5866 172.634 32.4028 172.676 32.2331C172.704 32.0634 172.818 31.8725 172.945 31.9008H172.966C173.1 31.9008 173.199 31.9998 173.242 32.1553C173.291 32.3038 173.298 32.4806 173.291 32.6502V32.6644C173.376 33.6047 173.468 34.644 173.687 35.7469C173.715 35.8812 173.751 36.0226 173.793 36.164C173.814 36.2347 173.843 36.3054 173.871 36.3761C173.892 36.4115 173.906 36.4468 173.935 36.4821C173.963 36.5175 173.991 36.567 174.09 36.5811C174.246 36.567 174.288 36.4539 174.323 36.3902C174.359 36.3125 174.38 36.2418 174.394 36.164C174.422 36.0155 174.444 35.8671 174.451 35.7115C174.493 35.1106 174.472 34.4955 174.429 33.8663C174.415 33.5481 174.338 33.23 174.394 32.9401C174.422 32.7987 174.479 32.6573 174.578 32.5937C174.627 32.5654 174.677 32.5583 174.733 32.5725C174.762 32.5795 174.79 32.5937 174.818 32.6078C174.84 32.629 174.84 32.622 174.861 32.6644C174.981 32.926 175.045 33.2724 175.115 33.5905C175.179 33.9158 175.235 34.248 175.292 34.5874C175.342 34.9268 175.391 35.2661 175.433 35.6055C175.469 35.9448 175.518 36.3054 175.603 36.6518C175.646 36.8286 175.695 36.9983 175.773 37.175C175.808 37.2598 175.851 37.3447 175.928 37.4366C175.957 37.4719 176.041 37.5426 176.147 37.5144C176.254 37.479 176.282 37.3942 176.296 37.3518C176.353 37.1397 176.338 36.9629 176.338 36.7791C176.331 36.5953 176.317 36.4185 176.303 36.2347C176.275 35.9236 176.246 35.6196 176.239 35.3156C176.239 35.1671 176.239 35.0116 176.254 34.8702C176.261 34.7995 176.275 34.7288 176.296 34.6793C176.31 34.651 176.324 34.6369 176.331 34.6228C176.331 34.6228 176.338 34.6228 176.345 34.6157L176.395 34.6015C176.642 34.5026 176.72 34.8419 176.784 35.1176C176.84 35.4004 176.876 35.6974 176.932 35.9873C177.031 36.567 177.151 37.1467 177.215 37.6982C177.243 37.9739 177.265 38.2567 177.18 38.49L176.918 39.2819V39.3313C177.364 41.318 177.986 43.0926 178.565 44.6621C179.152 46.2387 179.732 47.5961 180.248 48.7061C180.764 49.8231 181.224 50.6786 181.542 51.2654C181.704 51.5411 181.832 51.7603 181.924 51.9229C182.016 52.0714 182.058 52.1492 182.065 52.1421C182.065 52.1421 182.03 52.0573 181.952 51.9017C181.867 51.732 181.747 51.5129 181.598 51.2301C181.301 50.6362 180.856 49.7737 180.361 48.6566C179.859 47.5396 179.294 46.1751 178.721 44.6055C178.155 43.0289 177.547 41.2544 177.109 39.2889V39.3384C177.194 39.0839 177.279 38.8223 177.364 38.5607C177.463 38.2567 177.434 37.9668 177.406 37.677C177.342 37.0972 177.222 36.5387 177.123 35.959C177.067 35.6691 177.031 35.3722 176.975 35.0752C176.939 34.9268 176.904 34.7712 176.826 34.6157C176.784 34.5379 176.727 34.4531 176.621 34.4107C176.515 34.3682 176.416 34.3753 176.331 34.3965L176.268 34.4107C176.268 34.4107 176.204 34.4389 176.183 34.4601C176.133 34.5026 176.112 34.545 176.091 34.5945C176.056 34.6793 176.041 34.7642 176.027 34.849C176.006 35.0116 176.013 35.1671 176.013 35.3227C176.027 35.6338 176.056 35.9448 176.077 36.2559C176.091 36.4327 176.105 36.6165 176.112 36.7932C176.112 36.9629 176.126 37.1538 176.084 37.2881C176.077 37.3235 176.056 37.3164 176.084 37.3376C176.084 37.3376 176.084 37.3588 176.084 37.3518V37.3376C176.084 37.3376 176.091 37.3235 176.084 37.3235C176.084 37.3235 176.07 37.3235 176.063 37.3023C176.02 37.2528 175.985 37.1821 175.95 37.1043C175.886 36.9488 175.836 36.7791 175.794 36.6165C175.709 36.2771 175.66 35.9448 175.624 35.5913C175.582 35.2449 175.532 34.9056 175.483 34.5662C175.426 34.2268 175.37 33.8945 175.306 33.5623C175.228 33.23 175.179 32.9118 175.023 32.5795C175.016 32.5442 174.946 32.4735 174.91 32.4523C174.868 32.4311 174.825 32.4099 174.776 32.3957C174.677 32.3674 174.557 32.3816 174.465 32.4381C174.281 32.5583 174.224 32.7492 174.189 32.9189C174.161 33.0886 174.161 33.2583 174.189 33.4279C174.21 33.5835 174.224 33.739 174.239 33.8945C174.288 34.5167 174.309 35.1247 174.274 35.7115C174.267 35.86 174.246 36.0014 174.217 36.1357C174.203 36.2064 174.182 36.2701 174.161 36.3266C174.147 36.3549 174.133 36.3832 174.118 36.3973C174.104 36.4256 174.09 36.3902 174.097 36.4397C174.118 36.4044 174.097 36.4256 174.083 36.3902C174.069 36.3761 174.055 36.3408 174.041 36.3125C174.012 36.2559 173.991 36.1852 173.97 36.1216C173.928 35.9873 173.899 35.8529 173.871 35.7186C173.652 34.6369 173.546 33.5976 173.454 32.6644V32.6785C173.461 32.4876 173.454 32.3109 173.39 32.1271C173.362 32.0422 173.32 31.9503 173.249 31.8796C173.178 31.8089 173.072 31.7736 172.973 31.7806H172.994C172.846 31.7594 172.74 31.8443 172.676 31.9362C172.613 32.0281 172.584 32.1271 172.563 32.226C172.521 32.4169 172.521 32.6007 172.514 32.7775C172.499 33.131 172.499 33.4633 172.514 33.7814C172.528 34.4107 172.669 34.9338 172.719 35.358C172.782 35.7893 172.832 36.1216 172.853 36.3408C172.874 36.4468 172.789 36.5175 172.747 36.5316C172.697 36.5528 172.662 36.5599 172.669 36.5599L172.641 36.5458Z" fill="#A36957"/>
<path d="M148.609 55.3723C148.609 55.3723 147.591 55.3228 146.474 55.6198C144.572 56.1217 141.278 58.1154 141.144 60.5758H143.533C143.533 60.5758 142.197 63.425 142.586 63.1563C143.604 62.4705 145.633 60.4061 145.633 60.4061L148.602 55.3652L148.609 55.3723Z" fill="#B78876"/>
<path d="M181.196 12.5074C181.146 12.5074 180.927 10.5348 180.715 8.09571C180.503 5.65658 180.369 3.66992 180.425 3.66992C180.475 3.66992 180.694 5.64244 180.906 8.08157C181.118 10.5207 181.252 12.5074 181.196 12.5074Z" fill="#263238"/>
<path d="M191.673 3.79142C191.716 3.8197 190.104 6.16692 188.068 9.02318C186.032 11.8794 184.349 14.1772 184.306 14.1418C184.264 14.1135 185.876 11.7663 187.912 8.91006C189.948 6.0538 191.631 3.75607 191.673 3.79142Z" fill="#263238"/>
<path d="M196.03 14.409C196.044 14.4585 194.156 14.8898 191.823 15.3705C189.49 15.8513 187.588 16.1977 187.581 16.1482C187.567 16.0987 189.455 15.6675 191.788 15.1867C194.121 14.7059 196.023 14.3595 196.03 14.409Z" fill="#263238"/>
<path d="M70.5655 65.0787L57.5215 132.144L55.8105 140.925L142.891 140.494C146.801 140.473 150.265 137.001 151.524 131.847L166.964 68.5289C167.919 64.6121 165.826 60.5469 162.857 60.5469L74.7156 60.6388C72.7714 60.6388 71.0675 62.4558 70.5585 65.0716L70.5655 65.0787Z" fill="#FFCB09"/>
<path d="M70.5655 65.0787L57.5215 132.144L55.8105 140.925L142.891 140.494C146.801 140.473 150.265 137.001 151.524 131.847L166.964 68.5289C167.919 64.6121 165.826 60.5469 162.857 60.5469L74.7156 60.6388C72.7714 60.6388 71.0675 62.4558 70.5585 65.0716L70.5655 65.0787Z" fill="#EAB131"/>
<path d="M134.542 127.599L125.323 53.3006C124.948 50.2534 122.523 47.984 119.659 47.9981L99.4394 48.0617C97.9406 48.0617 96.5054 48.7051 95.4449 49.8292L85.8439 60.0312L29.6166 60.321C26.1806 60.3422 23.5435 63.5874 23.996 67.2425L32.5577 135.913C32.9394 138.953 35.3574 141.223 38.2136 141.215L136.21 141.025C147.126 141.251 148.166 138.027 148.166 138.027C135.659 140.798 134.542 127.599 134.542 127.592V127.599Z" fill="#FFCB09"/>
<g opacity="0.5">
<path d="M92.284 112.732L88.9823 116.281L63.5234 93.3812L66.8322 89.832L92.284 112.732Z" fill="white"/>
<path d="M87.5954 89.0469L91.2506 92.3273L68.2167 117.065L64.5615 113.785L87.5954 89.0469Z" fill="white"/>
</g>
<path d="M148.532 16.8401C148.299 16.7411 148.129 16.5078 148.115 16.2392L147.966 12.8173C147.959 12.6052 148.051 12.3931 148.214 12.2588C148.376 12.1244 148.603 12.0679 148.808 12.1174C149.359 12.2446 149.967 12.1244 150.476 11.7851C150.943 11.474 151.261 11.0145 151.339 10.5266C151.417 10.0388 151.268 9.50149 150.922 9.04194C150.554 8.55411 150.01 8.2289 149.465 8.16527C148.355 8.03801 147.153 8.8864 146.849 10.0247C146.75 10.3923 146.369 10.6115 146.008 10.5054C145.633 10.3994 145.421 10.0247 145.527 9.6641C146.015 7.88247 147.853 6.59574 149.635 6.80077C150.554 6.90682 151.431 7.42292 152.032 8.21476C152.597 8.96417 152.845 9.89034 152.703 10.7458C152.562 11.6083 152.032 12.4072 151.247 12.9304C150.681 13.3122 150.031 13.5172 149.38 13.5384L149.494 16.1755C149.508 16.5573 149.218 16.8754 148.836 16.8896C148.73 16.8896 148.631 16.8754 148.539 16.833L148.532 16.8401Z" fill="#FFCB09"/>
<path d="M149.542 18.2393C149.563 18.5503 149.33 18.8189 149.019 18.8401C148.708 18.8613 148.44 18.6281 148.418 18.317C148.397 18.006 148.63 17.7374 148.941 17.7162C149.252 17.695 149.521 17.9282 149.542 18.2393Z" fill="#FFCB09"/>
<path d="M136.683 12.0118C136.683 12.0118 136.697 11.934 136.718 11.7855C136.733 11.6229 136.761 11.4037 136.789 11.128C136.803 10.8381 136.881 10.4846 136.966 10.0675C137.015 9.86248 137.037 9.62918 137.114 9.39587C137.185 9.16256 137.263 8.91511 137.341 8.65352C137.694 7.61424 138.246 6.377 139.172 5.13976C140.091 3.90958 141.385 2.68648 143.046 1.76739C143.866 1.27956 144.799 0.940204 145.782 0.643266C146.779 0.409958 147.832 0.204929 148.935 0.233209C149.487 0.204929 150.045 0.282699 150.611 0.332188C150.894 0.360468 151.169 0.438238 151.459 0.487727C151.742 0.537217 152.032 0.593777 152.308 0.692756C153.446 0.982624 154.556 1.51994 155.609 2.18452C157.723 3.51367 159.505 5.68414 160.488 8.30709C160.975 9.62211 161.216 11.0644 161.209 12.5137C161.237 13.9701 160.954 15.4548 160.438 16.8476L160.268 17.2718L160.247 17.3284L160.268 17.3778C161.195 19.5059 162.1 21.5986 162.983 23.6277L163.139 23.4509C161.237 22.7157 159.385 22.0087 157.617 21.3299L157.547 21.3017L157.49 21.3512C155.956 22.8358 154.125 23.8398 152.272 24.363C150.413 24.8861 148.539 24.9144 146.836 24.6104C145.132 24.3064 143.59 23.656 142.311 22.8146C141.024 21.9733 139.992 20.9552 139.2 19.916C138.408 18.8696 137.892 17.795 137.496 16.8335C137.15 15.8507 136.938 14.9811 136.839 14.26C136.796 13.8994 136.754 13.5813 136.726 13.2985C136.718 13.0228 136.711 12.7894 136.704 12.5915C136.704 12.4077 136.69 12.2663 136.69 12.1602C136.69 12.0612 136.683 12.0118 136.676 12.0118C136.676 12.0118 136.676 12.0612 136.669 12.1602C136.669 12.2663 136.669 12.4147 136.669 12.5915C136.669 12.7894 136.669 13.0228 136.669 13.2985C136.697 13.5813 136.733 13.8994 136.768 14.2671C136.86 14.9953 137.058 15.879 137.397 16.8688C137.779 17.8445 138.295 18.9332 139.087 20.0079C139.886 21.0613 140.918 22.1076 142.219 22.9631C143.513 23.8256 145.068 24.4973 146.807 24.8084C148.539 25.1265 150.441 25.1053 152.336 24.5751C154.224 24.0519 156.09 23.0338 157.66 21.5208L157.539 21.5491C159.314 22.2349 161.159 22.9419 163.061 23.6772L163.337 23.7832L163.217 23.5004C162.34 21.4713 161.435 19.3857 160.509 17.2506V17.3566L160.679 16.9254C161.209 15.5043 161.499 13.9843 161.463 12.4996C161.463 11.0149 161.223 9.53727 160.721 8.20105C159.717 5.52153 157.893 3.31571 155.737 1.96535C154.662 1.28663 153.531 0.749316 152.371 0.452378C152.089 0.353398 151.799 0.296839 151.509 0.247349C151.219 0.197859 150.936 0.12009 150.646 0.0988799C150.074 0.0493903 149.508 -0.0283792 148.942 0.00697055C147.825 -0.0142393 146.751 0.197859 145.74 0.438238C144.743 0.749316 143.795 1.09574 142.968 1.59771C141.293 2.54508 139.985 3.7894 139.066 5.04785C138.139 6.3063 137.595 7.57182 137.249 8.61817C137.171 8.88683 137.1 9.13428 137.03 9.37466C136.959 9.60797 136.938 9.84127 136.888 10.0534C136.81 10.4705 136.74 10.8311 136.733 11.1209C136.711 11.4037 136.697 11.6229 136.683 11.7855C136.676 11.934 136.669 12.0118 136.676 12.0118H136.683Z" fill="#263238"/>
</g>
<defs>
<clipPath id="clip0_10800_176522">
<rect width="214.036" height="142" fill="white"/>
</clipPath>
</defs>
</svg>